<?xml version="1.0" encoding="UTF-8"?>
<svg width="16px" height="16px" viewBox="0 0 16 16" version="1.1" xmlns="http://www.w3.org/2000/svg" xmlns:xlink="http://www.w3.org/1999/xlink">
    <!-- Generator: Sketch 51.1 (57501) - http://www.bohemiancoding.com/sketch -->
    <title>Fill 145</title>
    <desc>Created with Sketch.</desc>
    <defs></defs>
    <g id="**desktop-FINAL" stroke="none" stroke-width="1" fill="none" fill-rule="evenodd">
        <g id="0014_AG" transform="translate(-523.000000, -649.000000)" fill="#0077CB">
            <g id="Group-6" transform="translate(484.000000, 490.000000)">
                <g id="Group-10">
                    <g id="Group-9">
                        <path d="M39.87575,173.8325 C39.87575,173.993 40.007,174.12425 40.1675,174.12425 L41.919,174.12425 L42.7945,174.12425 L50.3835,174.12425 L51.25925,174.12425 L53.0105,174.12425 C53.171,174.12425 53.3025,173.993 53.3025,173.8325 L53.3025,173.313 C53.3025,173.15225 53.171,173.021 53.0105,173.021 L40.1675,173.021 C40.007,173.021 39.87575,173.15225 39.87575,173.313 L39.87575,173.8325 Z M39,173.8325 L39,173.313 C39,172.668 39.5225,172.1455 40.1675,172.1455 L53.0105,172.1455 C53.6555,172.1455 54.178,172.668 54.178,173.313 L54.178,173.8325 C54.178,174.4775 53.6555,175 53.0105,175 L51.25925,175 L50.3835,175 L42.7945,175 L41.919,175 L40.1675,175 C39.5225,175 39,174.4775 39,173.8325 Z M52.7445,165.52225 L47.16425,171.1025 C46.87075,171.396 46.395,171.396 46.1015,171.1025 L40.4335,165.4345 C40.1555,165.1565 40.1555,164.70525 40.4335,164.42725 C40.71175,164.14925 41.1625,164.14925 41.44075,164.42725 L45.87675,168.86325 L45.87675,159.71225 C45.87675,159.31875 46.19575,159 46.589,159 C46.9825,159 47.30125,159.31875 47.30125,159.71225 L47.30125,168.951 L51.73725,164.51475 C52.0155,164.23675 52.46625,164.23675 52.7445,164.51475 C53.02275,164.79325 53.02275,165.244 52.7445,165.52225 Z" id="Fill-145"></path>
                    </g>
                </g>
            </g>
        </g>
    </g>
</svg>