<?xml version="1.0" encoding="UTF-8"?>
<svg width="16px" height="16px" viewBox="0 0 16 16" version="1.1" xmlns="http://www.w3.org/2000/svg" xmlns:xlink="http://www.w3.org/1999/xlink">
    <!-- Generator: Sketch 51.1 (57501) - http://www.bohemiancoding.com/sketch -->
    <title>Group 3</title>
    <desc>Created with Sketch.</desc>
    <defs></defs>
    <g id="**Mobile-FINAL" stroke="none" stroke-width="1" fill="none" fill-rule="evenodd" opacity="0.425897854">
        <g id="MM_004" transform="translate(-283.000000, -2885.000000)" fill="#606771" fill-rule="nonzero">
            <g id="Group-3" transform="translate(283.000000, 2885.000000)">
                <g id="icon-delete">
                    <path d="M15.3496471,2.36235294 C15.5727059,2.58541176 15.5727059,2.95058824 15.3496471,3.17270588 L10.8818824,7.63576471 C10.6607059,7.85788235 10.6607059,8.224 10.8818824,8.448 L15.3477647,12.9110588 C15.5698824,13.1322353 15.5698824,13.4992941 15.3477647,13.7232941 L13.7204706,15.3430588 C13.4964706,15.5651765 13.1312941,15.5651765 12.9072941,15.3430588 L8.44423529,10.8809412 C8.22023529,10.6588235 7.85505882,10.6588235 7.63105882,10.8809412 L3.16423529,15.3411765 C2.94211765,15.5632941 2.57505882,15.5632941 2.35294118,15.3411765 L0.728470588,13.7176471 C0.505411765,13.4955294 0.505411765,13.1294118 0.728470588,12.9072941 L5.19717647,8.44423529 C5.41929412,8.22305882 5.41929412,7.85694118 5.19717647,7.63294118 L0.732235294,3.168 C0.509176471,2.94588235 0.509176471,2.57976471 0.732235294,2.35670588 L2.35858824,0.735058824 C2.58352941,0.512941176 2.94776471,0.512941176 3.17082353,0.735058824 L7.63294118,5.19905882 C7.85694118,5.42211765 8.22211765,5.42211765 8.44611765,5.2 L12.9129412,0.738823529 C13.1341176,0.516705882 13.5011765,0.516705882 13.7251765,0.738823529 L15.3496471,2.36235294 Z" id="Shape"></path>
                </g>
            </g>
        </g>
    </g>
</svg>