<?xml version="1.0" encoding="UTF-8"?>
<svg width="28px" height="32px" viewBox="0 0 28 32" version="1.1" xmlns="http://www.w3.org/2000/svg" xmlns:xlink="http://www.w3.org/1999/xlink">
    <!-- Generator: Sketch 49.1 (51147) - http://www.bohemiancoding.com/sketch -->
    <title>yoga-linear</title>
    <desc>Created with Sketch.</desc>
    <defs></defs>
    <g id="**desktop-FINAL" stroke="none" stroke-width="1" fill="none" fill-rule="evenodd">
        <g id="0013__AG" transform="translate(-764.000000, -666.000000)" fill="#ACA533" fill-rule="nonzero">
            <g id="yoga-linear" transform="translate(764.000000, 666.000000)">
                <path d="M13.9901512,7.31717311 C16.0318818,7.31717311 17.6477655,5.66142691 17.6477655,3.65858656 C17.6477655,1.61685608 15.9920194,0 13.9901512,0 C11.9484207,0 10.3325369,1.65574618 10.3325369,3.65858656 C10.3325369,5.66142691 11.9484207,7.31717311 13.9901512,7.31717311 Z M13.9901512,1.65671844 C15.0683794,1.65671844 15.9531293,2.54438506 15.9531293,3.61969645 C15.9531293,4.69500783 15.0654625,5.58267446 13.9901512,5.58267446 C12.9148398,5.58267446 12.0271732,4.69598008 12.0271732,3.61969645 C12.0271732,2.54341282 12.9109509,1.65671844 13.9901512,1.65671844 Z M21.9237324,20.8713467 C21.4220501,20.911209 20.6928607,21.1785786 19.2286483,21.7949866 C17.5330397,22.4872306 15.1850498,23.4118427 13.9911235,23.4118427 C12.7971973,23.4118427 10.4880973,22.4882028 8.7535987,21.7949866 C7.28938627,21.2174685 6.56019681,20.90732 6.05851448,20.8713467 C4.55735646,20.7167585 3.36343025,21.2174685 2.86272016,22.2198611 C2.43687352,22.9889128 2.47673588,23.951443 2.97841822,24.6835492 C3.55593627,25.5712158 4.59430205,26.1477616 5.90392631,26.6095816 C5.25057255,26.8798678 4.63416441,27.0714015 4.28804248,27.2259898 L4.05761862,27.3018254 C3.82719475,27.3776611 3.67163432,27.5721116 3.55593627,27.7636455 C3.48010057,27.9950415 3.48010057,28.2254653 3.55593627,28.4558893 L4.44263064,30.5734554 C4.59721881,30.9195774 4.94431299,31.1111111 5.29043492,31.1111111 C6.83048304,30.9954131 8.64178964,30.3420594 10.3733715,29.6857888 C11.6829958,29.2239688 12.9167844,28.7621488 13.9551501,28.5706151 C14.9575426,28.7621488 16.2273045,29.2239688 17.5369287,29.6857888 C19.2685106,30.3021969 21.0798173,30.9555507 22.6198653,31.1111111 C22.6597277,31.1111111 22.6597277,31.1111111 22.695701,31.1111111 C23.041823,31.1111111 23.3490549,30.9195774 23.503643,30.5734554 L24.3913096,28.4558893 C24.4671453,28.2244931 24.4671453,27.9940693 24.3913096,27.7636455 C24.3154739,27.5332215 24.1210234,27.3776611 23.8896272,27.3018254 L23.6582312,27.2259898 C23.2722468,27.0714015 22.6558386,26.8400054 22.0413751,26.6095816 C23.3509993,26.1477616 24.3903374,25.6071891 24.9668832,24.6835492 C25.4685654,23.951443 25.5045389,22.9879406 25.0825812,22.2198611 C24.5808988,21.2174685 23.3869726,20.7157863 21.9227602,20.8713467 L21.9237324,20.8713467 Z M23.5794787,23.721019 C23.041823,24.528961 21.6534463,24.9518909 19.420182,25.6081613 C19.0740601,25.7238595 18.8426639,25.9941456 18.8037738,26.3402676 C18.7648838,26.6863895 18.919472,27.0325115 19.2296205,27.1880719 C19.9986724,27.6498919 21.4628848,28.1904642 22.5022227,28.5735318 L22.194991,29.2657756 C21.0010648,29.0742419 19.5757425,28.5336694 18.1902824,28.0349039 C16.72607,27.4972482 15.3795003,26.9955658 14.185574,26.8040321 C14.0698759,26.7641698 13.9541778,26.8040321 13.839452,26.8040321 C12.6455258,26.9955658 11.2960392,27.496276 9.87460595,27.9979583 C8.48914598,28.4996406 7.06382367,29.0372962 5.86989748,29.2288301 L5.5597489,28.5326972 C6.59908692,28.1467128 8.02343699,27.5691948 8.83235116,27.1472373 C9.13958298,26.9926491 9.29417115,26.6455549 9.25819779,26.2994329 C9.22222445,25.9533111 8.98791157,25.6830249 8.64178964,25.5673267 C6.40852542,24.913973 4.98320309,24.452153 4.482493,23.6801844 C4.32790484,23.4886507 4.32790484,23.178502 4.44263064,22.9879406 C4.63416441,22.6418187 5.21168245,22.4502849 5.98267877,22.5261206 C6.02254112,22.5261206 6.02254112,22.5261206 6.02254112,22.5261206 C6.29282735,22.5659829 7.33216538,22.9879406 8.17996965,23.2951724 C10.1060021,24.0642242 12.5308,25.0267544 14.0319581,25.0267544 C15.533116,25.0267544 17.9608308,24.063252 19.8839464,23.2951724 C20.7317508,22.9490504 21.7710889,22.5261206 22.0413751,22.5261206 C22.0812374,22.5261206 22.0812374,22.5261206 22.1172107,22.5261206 C22.8862626,22.4502849 23.4657251,22.6019564 23.657259,22.9879406 C23.7360113,23.2193368 23.6971213,23.5285131 23.5814231,23.7200468 L23.5794787,23.721019 Z M27.8544734,16.9823363 C27.6998853,16.7509401 27.4684891,16.596352 27.2380652,16.596352 C26.044139,16.4417638 23.8108747,15.9799438 22.9232082,15.2867277 C22.3068,14.860881 21.84498,13.6708438 21.3831601,12.5158077 C20.8455044,11.1303478 20.2679864,9.74488786 19.2655938,9.04875499 C19.2257315,9.04875499 19.2257315,9.00889264 19.1897582,9.00889264 C17.6497101,8.08525267 9.98641499,8.08525267 8.7166531,9.04875499 C7.71426066,9.7419711 7.13674262,11.1663212 6.59908692,12.5158077 C6.13726694,13.6708438 5.67544695,14.86477 5.01917645,15.3265901 C4.09553646,16.0586963 1.63184837,16.5205163 0.744181729,16.596352 C0.473895505,16.6362143 0.242499398,16.7878858 0.127773583,16.9823363 C-0.0268145729,17.2137324 -0.0268145729,17.4840185 0.0519378849,17.7144425 L0.820989696,19.9477066 C0.936687749,20.217993 1.16711162,20.449389 1.43739784,20.5252247 C3.47912832,20.9870447 5.59669449,20.6010605 7.67537056,19.4858868 C8.25288861,19.1786549 8.7535987,18.7936429 9.17652857,18.370713 C9.25236429,19.0240668 9.29222664,19.6803373 9.36806234,20.2967453 C9.4079247,20.7585653 9.82988233,21.1445497 10.2917023,21.1046873 C10.7535223,21.0677416 11.1395066,20.6428673 11.0996443,20.1810473 C11.0238086,18.8325329 10.829358,17.4072106 10.5979619,15.8661902 C10.5221262,15.480206 10.25184,15.1729741 9.86585567,15.134084 C9.4798714,15.095194 9.13374946,15.2886722 8.9791613,15.6717397 C8.55331465,16.7110778 7.86107081,17.4830463 6.89756847,18.020702 C5.35752034,18.8685064 3.81649996,19.1757381 2.3552043,18.9842044 L2.08491808,18.2151525 C3.27884427,17.9837565 5.12612422,17.5617988 6.12851666,16.7509401 C7.1309091,16.0188339 7.70842714,14.5935116 8.24608283,13.2080516 C8.70790282,12.0899611 9.16972282,10.8989517 9.74724086,10.5129674 C10.7107432,9.97531173 17.3735903,9.97531173 18.2972303,10.5129674 L18.3370927,10.5528298 C18.9146107,10.9786764 19.3764307,12.1327403 19.8013051,13.2479139 C20.3389608,14.633374 20.9164788,16.0586963 21.8828979,16.7509401 C22.9222359,17.558882 24.7695159,18.020702 25.9634421,18.2151525 L25.6931559,18.9842044 C24.1919978,19.1757381 22.6879231,18.8685064 21.1507917,18.020702 C20.1872893,17.4830463 19.4950454,16.7110778 19.0691989,15.6717397 C18.9146107,15.3256178 18.5315432,15.0942216 18.1815321,15.134084 C17.7955479,15.1739464 17.4892883,15.480206 17.4494259,15.8661902 C17.2180299,17.4062384 17.0235794,18.8315607 16.9477437,20.1810473 C16.9078814,20.6428673 17.2549754,21.068714 17.7556856,21.1046873 C17.7955479,21.1046873 17.7955479,21.1046873 17.8315212,21.1046873 C18.2933413,21.1046873 18.6394631,20.7585653 18.6793255,20.2967453 C18.7191878,19.6803373 18.7950236,19.0269834 18.8708593,18.370713 C19.296706,18.8325329 19.7944994,19.1786549 20.3720174,19.4858868 C22.4536102,20.6409229 24.531314,20.9870447 26.6099901,20.5252247 C26.9172218,20.449389 27.1476458,20.2549385 27.2263983,19.9477066 L27.99545,17.7144425 C28.011006,17.4801296 27.9711437,17.2127601 27.8554456,16.9823363 L27.8544734,16.9823363 Z" id="path-1"></path>
            </g>
        </g>
    </g>
</svg>