<?xml version="1.0" encoding="UTF-8"?>
<svg width="16px" height="16px" viewBox="0 0 16 16" version="1.1" xmlns="http://www.w3.org/2000/svg" xmlns:xlink="http://www.w3.org/1999/xlink">
    <!-- Generator: Sketch 51.1 (57501) - http://www.bohemiancoding.com/sketch -->
    <title>Group 5</title>
    <desc>Created with Sketch.</desc>
    <defs></defs>
    <g id="**Mobile-FINAL" stroke="none" stroke-width="1" fill="none" fill-rule="evenodd">
        <g id="MM_004" transform="translate(-258.000000, -2884.000000)" fill="#0079C8" fill-rule="nonzero">
            <g id="Group-5" transform="translate(258.000000, 2884.000000)">
                <path d="M2.81007508,10.7344992 L5.38492534,13.3290938 L2.53509107,14.2957075 L1.73513759,13.5325914 L2.81007508,10.7344992 Z M12.6345037,6.13036566 L6.10988318,12.6677266 L5.15993843,11.7011129 L11.7095575,5.13831479 L11.0095982,4.45151033 L4.45997913,11.0143084 L3.38504164,9.94594595 L9.93466075,3.38314785 L9.23470146,2.6963434 L2.13511433,9.81875994 C2.08511724,9.86963434 2.06011869,9.92050874 2.03512015,9.99682035 L0.0352364499,15.3386328 C-0.0397591887,15.5166932 0.0102379037,15.7201908 0.135230635,15.8473768 C0.23522482,15.9491256 0.335219005,16 0.485210282,16 C0.535207374,16 0.585204467,16 0.635201559,15.9745628 L5.90989481,14.2193959 C5.98489045,14.1939587 6.03488754,14.1685215 6.10988318,14.1176471 L13.3094645,6.89348172 L12.6345037,6.13036566 Z M14.9593685,3.79014308 L14.1594151,4.57869634 L11.4345735,1.83147854 L12.234527,1.01748808 C12.2595256,0.992050874 12.3095226,0.966613672 12.3345212,0.966613672 C12.3595197,0.966613672 12.3845183,0.966613672 12.4345154,1.01748808 L14.9593685,3.56120827 C14.9843671,3.58664547 15.0093656,3.63751987 15.0093656,3.66295707 C15.0093656,3.71383148 14.9843671,3.76470588 14.9593685,3.79014308 Z M15.6593278,2.87440382 L13.1344747,0.330683625 C12.9344863,0.12718601 12.6345037,0 12.3345212,0 C12.0345386,0 11.7345561,0.101748808 11.5345677,0.330683625 L10.7346142,1.14467409 L10.0346549,1.83147854 L14.1844136,5.97774245 L14.8843729,5.290938 L15.6843264,4.47694754 C16.1093017,4.06995231 16.1093017,3.33227345 15.6593278,2.87440382 Z" id="Lapiz"></path>
            </g>
        </g>
    </g>
</svg>