<?xml version="1.0" encoding="UTF-8"?>
<svg width="45px" height="42px" viewBox="0 0 45 42" version="1.1" xmlns="http://www.w3.org/2000/svg" xmlns:xlink="http://www.w3.org/1999/xlink">
    <!-- Generator: Sketch 49.1 (51147) - http://www.bohemiancoding.com/sketch -->
    <title>Fill 54</title>
    <desc>Created with Sketch.</desc>
    <defs></defs>
    <g id="**desktop-FINAL" stroke="none" stroke-width="1" fill="none" fill-rule="evenodd">
        <g id="0013__AG" transform="translate(-358.000000, -925.000000)" fill="#0077CB">
            <g id="Group-4" transform="translate(310.000000, 918.000000)">
                <path d="M64.8925923,32.4925202 C64.0114494,32.4925202 63.2667148,31.7477856 63.2667148,30.8666426 C63.2667148,29.9848107 64.0114494,29.2400761 64.8925923,29.2400761 C65.7744243,29.2400761 66.5191588,29.9848107 66.5191588,30.8666426 C66.5191588,31.7477856 65.7744243,32.4925202 64.8925923,32.4925202 M75.1948691,32.4925202 C74.3130372,32.4925202 73.5683026,31.7477856 73.5683026,30.8666426 C73.5683026,29.9848107 74.3130372,29.2400761 75.1948691,29.2400761 C76.106325,29.2400761 76.8207467,29.9544977 76.8207467,30.8666426 C76.8207467,31.7477856 76.0753231,32.4925202 75.1948691,32.4925202 M53.9716554,31.2503773 C54.3009645,31.2503773 54.6206286,31.3888524 54.8727774,31.6403123 L54.9347812,31.7023161 L55.0174529,31.8407913 C55.1207926,32.0206023 55.3130044,32.3561118 55.4645693,32.8114953 C55.4714586,32.8996785 55.4845483,32.9313693 55.4997047,32.9678827 C55.5155502,33.0064628 55.5334624,33.0498655 55.5334624,33.1029132 C56.5889049,36.4807427 60.9064366,40.1355226 64.6804015,42.0293944 C64.9938652,40.951906 65.5594777,40.0535398 66.3648383,39.3515189 C65.757201,39.0938587 65.4382258,38.780395 65.4382258,38.4393741 C65.4382258,37.498983 67.8425956,36.9368152 70.1670494,36.9368152 C72.4915032,36.9368152 74.8965619,37.498983 74.8965619,38.4393741 C74.8965619,38.8258644 74.5162719,39.1482842 73.7364018,39.4217899 C74.3977757,39.991536 74.9041401,40.7576275 75.2120924,41.6580605 C78.8648055,39.8048356 83.4165737,36.4745424 84.434814,33.0622663 L84.5057739,32.9155239 L84.4913063,32.8521422 C84.6483827,32.3078866 84.8412834,31.9985565 84.9446231,31.8318352 C84.9701135,31.7911882 84.9900925,31.7594974 85.0018043,31.7353848 L85.0906765,31.6375566 C85.3407585,31.3860967 85.6604225,31.2476215 85.9897316,31.2476215 C86.1640312,31.2476215 86.336953,31.2875796 86.4892067,31.363362 C86.6814185,31.4591234 86.9383899,31.5872646 86.9962601,31.5982875 C87.1953612,31.6596024 87.3035234,31.6596024 87.4833344,31.6596024 L87.5825405,31.6609803 C88.0599698,31.6341119 88.5050194,31.4143429 88.8453514,31.0354307 C89.32967,30.4939308 89.5535726,29.6927039 89.4585001,28.8356735 C89.4578112,27.3138246 88.4691949,26.0406797 87.2987009,26.0406797 C86.9983269,26.0406797 86.897054,26.0406797 86.6779739,26.1509087 L86.4299587,26.2756053 C86.3087068,26.3362312 86.1991667,26.3913457 86.0916935,26.498819 C85.9649301,26.5952693 85.8154321,26.6400499 85.645955,26.6400499 C85.345581,26.6400499 85.0107604,26.5008858 84.7276097,26.2570041 C84.595335,26.1267961 84.2632701,25.7988649 84.0655469,25.2036284 L84.0104324,25.097533 C82.6387704,21.603963 78.018109,17.8630667 74.4611574,16.3398399 C73.2121252,19.1086543 70.6403451,20.8902303 67.8735975,20.8902303 C67.7743914,20.8902303 67.658651,20.8743849 67.5429106,20.8571616 C67.4409488,20.842694 67.3396759,20.8275376 67.2528705,20.8275376 C66.9924546,20.8275376 66.7499508,20.7138639 66.567384,20.5078735 C66.3696608,20.2832819 66.2732104,19.9739518 66.3097238,19.6811561 C66.3083459,19.1823699 66.7761302,18.7469654 67.3293419,18.7469654 C67.3713667,18.7469654 67.4133915,18.7497211 67.4554163,18.7552326 C67.6104258,18.7724559 67.7661243,18.780723 67.9211338,18.780723 C70.4688013,18.780723 72.7319402,16.5044945 73.074339,13.5992717 C73.2493275,12.4845811 72.9730661,11.3974477 72.2958467,10.5342169 C71.7984384,9.8156617 70.9510531,9.35201102 69.9045666,9.21973624 C69.7950266,9.20802441 69.6841087,9.20182403 69.5738797,9.20182403 C68.0733876,9.20182403 66.867758,10.3323601 66.7065481,11.8907224 C66.6473,12.6023883 66.8229775,13.3099206 67.1757103,13.7797717 C67.4512827,14.1111476 67.7874811,14.2882029 68.2628436,14.3481399 C68.3214028,14.357096 68.3772062,14.3619185 68.4330096,14.3619185 C68.7402729,14.3619185 69.0434027,14.2351552 69.2659274,14.0133193 C69.5518339,13.7287908 69.7219999,13.3250771 69.7219999,12.9316974 C69.7219999,12.3633292 70.220786,11.864543 70.7898432,11.864543 C71.3582114,11.864543 71.8569976,12.3633292 71.8569976,12.9316974 C71.8569976,14.0126304 71.442261,14.9537104 70.6899482,15.5813267 C69.9748376,16.1779411 69.1460534,16.5065612 68.3565383,16.5065612 C68.2304639,16.5065612 68.1043895,16.4982941 67.9776261,16.4810708 C67.4691949,16.4245784 66.9697198,16.2619907 66.4936684,15.998819 C62.4027951,17.4221508 57.1359163,21.3070337 55.7118955,25.1436914 L55.7050062,25.1629814 L55.6464471,25.227741 C55.5313956,25.6610787 55.3164491,26.0089889 55.0146972,26.2928286 C54.7219015,26.5856243 54.3953481,26.7433895 54.1004855,26.7433895 C53.9110295,26.7433895 53.745686,26.6793189 53.625123,26.558756 C53.4997376,26.4347484 53.4522013,26.3865232 53.3495506,26.3355423 L53.2779017,26.2873171 L53.2455219,26.2873171 L53.1628502,26.2735385 C52.934814,26.1598648 52.704711,26.1019946 52.4794305,26.1019946 C51.3089364,26.1019946 50.3203202,27.3751394 50.3203202,28.8825208 C50.3203202,30.3892133 51.3089364,31.6623581 52.4794305,31.6623581 C52.6592415,31.6623581 52.7674037,31.6623581 52.9327472,31.6072436 C52.9327472,31.5865757 53.0216193,31.5521291 53.1566498,31.5011482 C53.2503445,31.4653238 53.3619513,31.4226101 53.4728692,31.3661177 C53.625123,31.2903353 53.7980447,31.2503773 53.9716554,31.2503773 M70.0437307,40.4358966 C68.3737616,40.4358966 67.0151893,41.7937799 67.0151893,43.4637491 C67.0151893,45.1337183 68.3737616,46.4922905 70.0437307,46.4922905 C71.7136999,46.4922905 73.0722722,45.1337183 73.0722722,43.4637491 C73.0722722,41.7937799 71.7136999,40.4358966 70.0437307,40.4358966 M64.7120924,44.6783348 C60.1348337,42.7148809 54.8197297,38.4669313 53.3826193,34.0687947 C53.0905124,34.1349321 52.834919,34.1673119 52.6055049,34.1673119 C50.0661046,34.1673119 48,31.823568 48,28.9417689 C48,26.0606587 50.0661046,23.716226 52.6055049,23.716226 C53.0188636,23.716226 53.4177547,23.7699626 53.7670428,23.8712355 C55.4342563,19.8802572 60.7149137,15.7721606 64.9642412,14.0332983 C64.6707565,13.2672069 64.5777508,12.4315334 64.696247,11.6082606 C64.986287,8.93934125 67.1102618,7 69.7454235,7 C69.9093891,7 70.0761105,7.00688931 70.2435208,7.0220458 C71.8349518,7.22045798 73.2114363,7.96657044 74.1235811,9.12190801 C75.1307985,10.3805853 75.5820484,12.0471098 75.3932813,13.8128404 C75.3939702,13.8838003 75.3726133,13.946493 75.356079,13.9974739 C79.4579752,15.7494259 84.6256479,19.8630339 86.3211075,23.8712355 C86.6724624,23.7699626 87.0713536,23.716226 87.4833344,23.716226 C90.0248015,23.7176038 92.091595,26.0620366 92.091595,28.9431468 C92.091595,31.8249459 90.0248015,34.1686897 87.4854012,34.1686897 C87.207073,34.1686897 86.9831704,34.1225313 86.7234433,34.0687947 C85.3187127,38.189981 80.0828358,42.1616692 75.4470179,44.3014894 C75.0887737,46.9855653 72.7801653,49 70.0451086,49 C67.4919297,49 65.2611705,47.1867332 64.7120924,44.6783348 Z" id="Fill-54"></path>
            </g>
        </g>
    </g>
</svg>