<?xml version="1.0" encoding="UTF-8"?>
<svg width="25px" height="30px" viewBox="0 0 25 30" version="1.1" xmlns="http://www.w3.org/2000/svg" xmlns:xlink="http://www.w3.org/1999/xlink">
    <!-- Generator: Sketch 49.1 (51147) - http://www.bohemiancoding.com/sketch -->
    <title>icon_monto-reembolso</title>
    <desc>Created with Sketch.</desc>
    <defs></defs>
    <g id="**desktop-FINAL" stroke="none" stroke-width="1" fill="none" fill-rule="evenodd">
        <g id="0013__AG" transform="translate(-560.000000, -667.000000)" fill="#C6007E">
            <g id="icon_monto-reembolso" transform="translate(560.000000, 667.000000)">
                <g id="billing" fill-rule="nonzero">
                    <path d="M11.9224215,4.18001643 L18.6951878,4.18001643 L18.6951878,5.83713376 L11.9224215,5.83713376 L11.9224215,4.18001643 Z M16.0675126,8.97949881 L18.6924306,8.97949881 L18.6924306,10.6366161 L16.0675126,10.6366161 L16.0675126,8.97949881 Z M3.73425831,8.97949881 L10.0906774,8.97949881 L10.0906774,10.6366161 L3.73425831,10.6366161 L3.73425831,8.97949881 Z M14.8239853,12.5924374 L18.6924306,12.5924374 L18.6924306,14.2495547 L14.8239853,14.2495547 L14.8239853,12.5924374 Z M5.39137563,19.7300819 L9.25982088,19.7300819 L9.25982088,22.2171366 L5.39137563,22.2171366 L5.39137563,19.7300819 Z M3.73425831,12.5924374 L12.5804893,12.5924374 L12.5804893,14.2495547 L3.73425831,14.2495547 L3.73425831,12.5924374 Z M17.5545985,15.8984003 C21.2456596,15.8984003 24.2869249,19.1666804 24.2841676,22.6564612 C24.2841676,26.3585513 21.0269165,29.4117647 17.5545985,29.4117647 C13.7550849,29.4117647 10.8195149,26.1407272 10.8195149,22.6537038 C10.8195149,19.1666804 13.7550849,15.8984003 17.5545985,15.8984003 Z M17.5545985,27.9954487 L17.5536794,27.9954487 C20.5931065,27.9954487 22.873366,25.7087554 22.873366,22.6564612 C22.873366,19.6041668 20.5903493,17.3174735 17.5545985,17.3174735 C14.5124141,17.3174735 12.2293972,19.6041668 12.2293972,22.6564612 C12.2293972,25.7087554 14.5133332,27.9954487 17.5545985,27.9954487 Z M1.57991387,24.928449 L1.57991387,24.9312062 L10.0640237,24.9312062 C10.1926962,25.4936887 10.3829476,26.0313556 10.6209916,26.5423691 L0.936551618,26.5423691 C0.419104544,26.5423691 0,26.1232646 0,25.6058175 L0,0.936551618 C0,0.419104544 0.419104544,0 0.936551618,0 L20.9010013,0 C21.4184484,0 21.8375529,0.419104544 21.8375529,0.936551618 L21.8375529,15.8947238 C21.3577884,15.6392172 20.8495322,15.4324222 20.3210562,15.2743388 L20.3210562,1.59186201 L1.57991387,1.59186201 L1.57991387,24.928449 Z" id="path-1"></path>
                </g>
                <g id="$" transform="translate(14.705882, 16.647059)" font-family="Montserrat-Medium, Montserrat" font-size="8" font-weight="400">
                    <text>
                        <tspan x="0.628676471" y="8.41176471">$</tspan>
                    </text>
                </g>
            </g>
        </g>
    </g>
</svg>