<?xml version="1.0" encoding="UTF-8"?>
<svg width="30px" height="30px" viewBox="0 0 30 30" version="1.1" xmlns="http://www.w3.org/2000/svg" xmlns:xlink="http://www.w3.org/1999/xlink">
    <!-- Generator: Sketch 49.1 (51147) - http://www.bohemiancoding.com/sketch -->
    <title>whatsapp</title>
    <desc>Created with Sketch.</desc>
    <defs></defs>
    <g id="**desktop-FINAL" stroke="none" stroke-width="1" fill="none" fill-rule="evenodd">
        <g id="0013__AG" transform="translate(-317.000000, -721.000000)" fill="#40A2A4" fill-rule="nonzero">
            <g id="whatsapp" transform="translate(317.000000, 721.000000)">
                <path d="M15.1532764,0 C7.08259118,0 0.539983125,6.54448299 0.539983125,14.6132934 C0.539983125,17.3732071 1.30495922,19.9568763 2.63710509,22.1571201 L0,30 L8.09130964,27.4107058 C10.1856192,28.5712947 12.5939814,29.2303365 15.154214,29.2303365 C23.2248992,29.2303365 29.7675072,22.6886659 29.7675072,14.6170433 C29.7675072,6.54542046 23.2230243,0.00093747 15.1514014,0.00093747 L15.1532764,0 Z M15.1532764,26.8997844 C12.6577294,26.8997844 10.3337396,26.1526203 8.39505015,24.8692228 L3.67301022,26.3813631 L5.20858723,21.8196306 C3.73769569,19.7918815 2.86772289,17.3047718 2.86772289,14.6161057 C2.86772289,7.84287991 8.37817567,2.3296147 15.1542139,2.3296147 C21.9302521,2.3296147 27.4407049,7.84006751 27.4407049,14.6161057 C27.4407049,21.3893316 21.9302521,26.8997844 15.1542139,26.8997844 L15.1532764,26.8997844 Z M11.7249461,8.5694197 C11.4258929,7.85131714 11.1277773,7.97225086 10.9196588,7.97225086 C10.7115403,7.97225086 10.4715478,7.94318928 10.2343677,7.94318928 C9.99718759,7.94318928 9.60719977,8.03131152 9.27908503,8.39130027 C8.95097028,8.75128902 8.02474923,9.615637 8.02474923,11.3799569 C8.02474923,13.1442768 9.30814662,14.845786 9.48626605,15.0829662 C9.66438549,15.3201462 11.9649386,19.055967 15.6060748,20.4912346 C19.247211,21.9265023 19.247211,21.4465173 19.9034404,21.3874566 C20.55967,21.328396 22.0211868,20.5202962 22.32024,19.6850098 C22.6192932,18.8497234 22.6192932,18.1325583 22.5283585,17.9825631 C22.4374239,17.8325677 22.2002437,17.7425706 21.8430673,17.566326 C21.4858911,17.3900815 19.7225086,16.5201087 19.3934565,16.4001124 C19.0653417,16.2801162 18.8253492,16.2210556 18.588169,16.5791694 C18.350989,16.9372831 17.661948,17.7453829 17.4547671,17.9825631 C17.247586,18.2197431 17.0357176,18.2525545 16.6785412,18.0734977 C16.321365,17.8944408 15.166401,17.5166401 13.7986312,16.2951157 C12.732727,15.3463954 12.0146245,14.174557 11.806506,13.8136308 C11.5983876,13.4527045 11.7830693,13.262398 11.9649386,13.0842786 C12.1261836,12.9230337 12.3221149,12.6652291 12.5011719,12.4571107 C12.6802287,12.2489922 12.7411644,12.0999343 12.8583481,11.8599419 C12.975532,11.6199494 12.9174088,11.4118309 12.8292865,11.232774 C12.7411644,11.0537171 12.0239992,9.28752226 11.7249461,8.5694197 Z" id="path-1"></path>
            </g>
        </g>
    </g>
</svg>