<?xml version="1.0" encoding="UTF-8"?>
<svg width="34px" height="44px" viewBox="0 0 34 44" version="1.1" xmlns="http://www.w3.org/2000/svg" xmlns:xlink="http://www.w3.org/1999/xlink">
    <!-- Generator: Sketch 49.1 (51147) - http://www.bohemiancoding.com/sketch -->
    <title>Group 10</title>
    <desc>Created with Sketch.</desc>
    <defs></defs>
    <g id="**desktop-FINAL" stroke="none" stroke-width="1" fill="none" fill-rule="evenodd">
        <g id="0013__AG" transform="translate(-706.000000, -930.000000)">
            <g id="Group" transform="translate(650.000000, 918.000000)">
                <g id="Group-4">
                    <g id="Group-10" transform="translate(58.000000, 12.000000)">
                        <path d="M22.6953323,39.0901875 C22.0981448,39.8356875 21.0547073,39.8356875 21.0547073,39.8356875 L8.22370733,39.8356875 C8.22370733,39.8356875 7.17895733,39.8356875 6.58308233,39.0901875 C5.83758233,38.1950625 6.06070733,36.6279375 6.28514483,35.434875 C7.40470733,30.5116875 6.95714483,27.8263125 6.58308233,25.438875 C6.50826983,24.766875 6.35864483,24.0961875 6.35864483,23.3506875 C6.20901983,21.336 7.03064483,20.1429375 7.32858233,20.068125 L22.0246448,20.068125 C22.2490823,20.1429375 22.7701448,20.96325 22.9197698,22.3059375 C22.7701448,22.231125 22.6218323,22.231125 22.3973948,22.231125 C21.6518948,22.231125 19.6372073,22.7521875 19.6372073,23.4241875 C19.6372073,24.0942188 21.6518948,24.61725 22.3973948,24.61725 C22.5470198,24.61725 22.6218323,24.61725 22.7701448,24.5424375 C22.6953323,24.840375 22.6953323,25.139625 22.6205198,25.36275 C22.5457073,25.7348437 22.5457073,26.0334375 22.4708948,26.4075 L22.3960823,26.4075 C21.6505823,26.4075 19.6358948,26.929875 19.6358948,27.6005625 C19.6358948,28.19775 21.3513323,28.720125 22.2464573,28.793625 L22.2464573,30.6586875 C21.3513323,30.7335 19.6358948,31.1810625 19.6358948,31.85175 C19.6358948,32.5224375 21.6505823,33.0448125 22.3960823,33.0448125 L22.5457073,33.0448125 C22.6205198,33.642 22.7701448,34.3126875 22.9184573,34.9846875 C22.7688323,34.909875 22.6205198,34.909875 22.4708948,34.909875 C21.7253948,34.909875 19.7107073,35.43225 19.7107073,36.1029375 C19.7107073,36.773625 21.7253948,37.296 22.4708948,37.296 C22.7688323,37.296 22.9932698,37.2211875 23.2163948,37.0715625 C23.2163948,37.8170625 23.0667698,38.563875 22.6940198,39.08625 L22.6953323,39.0901875 Z M12.1021448,8.4301875 C13.0720823,7.6846875 13.1468948,6.342 12.9224573,4.8496875 C12.6245198,3.357375 12.6245198,2.0146875 14.7127073,1.86440625 C16.8008948,2.0146875 16.8008948,3.357375 16.5029573,4.8496875 C16.2050198,6.342 16.2785198,7.609875 17.2484573,8.4301875 C18.2183948,9.1756875 19.5610823,9.3253125 19.7107073,11.862375 L9.56508233,11.862375 C9.71470733,9.3253125 11.1322073,9.177 12.1021448,8.4301875 Z M25.0827698,34.9873125 C23.7400823,28.86975 24.8583323,26.557125 25.0827698,23.499 C25.3072073,20.514375 23.9632073,18.0534375 22.1729573,17.978625 C22.5457073,17.829 22.7701448,17.45625 22.7701448,17.0086875 L22.7701448,12.9058125 C22.7701448,12.3079688 22.3225823,11.8610625 21.7253948,11.8610625 L21.5757698,11.8610625 C21.4261448,8.8029375 19.8603323,7.833 18.8155823,7.2358125 C18.5911448,7.08553125 18.4428323,7.0126875 18.3680198,6.937875 C18.0700823,6.71475 18.1435823,5.893125 18.2932073,5.2224375 C18.4428323,4.4769375 18.7407698,2.7601875 17.7708323,1.4175 C17.0988323,0.5971875 16.1302073,0.149625 14.8610198,0 L14.5630823,0 C13.2203948,0.0748125 12.2504573,0.52171875 11.6532698,1.4175 C10.5337073,2.7601875 10.9077698,4.475625 11.0560823,5.2224375 C11.2057073,5.8944375 11.2792073,6.71475 10.9812698,6.937875 C10.8316448,7.0126875 10.6085198,7.161 10.4588948,7.2358125 C9.48895733,7.833 7.84833233,8.8029375 7.69870733,11.8610625 L7.62389483,11.8610625 C7.02670733,11.8610625 6.57914483,12.3079688 6.57914483,12.9058125 L6.57914483,17.0086875 C6.57914483,17.45625 6.80358233,17.7541875 7.17633233,17.978625 C5.46089483,18.12825 4.04339483,20.5156875 4.26651983,23.499 C4.48964483,26.557125 5.60920733,28.86975 4.26651983,34.9873125 C2.92383233,41.104875 7.02670733,42 8.29458233,42 L21.1255823,42 C22.2451448,42 26.4228323,41.104875 25.0788323,34.9873125 L25.0827698,34.9873125 Z" id="Fill-225" fill="#0077CB"></path>
                        <path d="M0.5,41.5 L29.5,5.5" id="Line-3" stroke="#0077CB" stroke-width="3" stroke-linecap="square"></path>
                    </g>
                </g>
            </g>
        </g>
    </g>
</svg>