<?xml version="1.0" encoding="UTF-8"?>
<svg width="30px" height="26px" viewBox="0 0 30 26" version="1.1" xmlns="http://www.w3.org/2000/svg" xmlns:xlink="http://www.w3.org/1999/xlink">
    <!-- Generator: Sketch 49.1 (51147) - http://www.bohemiancoding.com/sketch -->
    <title>linear</title>
    <desc>Created with Sketch.</desc>
    <defs></defs>
    <g id="**desktop-FINAL" stroke="none" stroke-width="1" fill="none" fill-rule="evenodd">
        <g id="0013__AG" transform="translate(-763.000000, -614.000000)" fill="#A3A82A" fill-rule="nonzero">
            <g id="linear" transform="translate(763.000000, 614.000000)">
                <path d="M10.7236704,18.9547918 C10.7236704,19.5022497 11.1811352,19.9597144 11.7285931,19.9597144 C12.276051,19.9597144 12.7335158,19.5022497 12.7335158,18.9547918 C12.7335158,18.4073339 12.276051,17.9498691 11.7285931,17.9498691 C11.1811352,17.9498691 10.7236704,18.4073339 10.7236704,18.9547918 Z M5.92778937,21.3780429 C5.92778937,21.9255008 6.38431676,22.4298369 6.93271206,22.4298369 C7.48110738,22.4298369 7.93763475,21.9723722 7.93763475,21.3780429 C7.93763475,20.830585 7.48110738,20.3731201 6.93271206,20.3731201 C6.38431676,20.3731201 5.92778937,20.8268353 5.92778937,21.3780429 Z M13.693442,20.5109222 C13.693442,21.05838 14.1509067,21.5158447 14.6983647,21.5158447 C15.2458226,21.5158447 15.7032873,21.05838 15.7032873,20.5109222 C15.7032873,19.9634642 15.2458226,19.5059994 14.6983647,19.5059994 C14.1509067,19.503187 13.693442,19.9597144 13.693442,20.5109222 Z M11.9563881,24.2981307 L3.73608299,24.2981307 C2.7311603,24.2981307 1.95497001,24.022527 1.72623761,23.5688118 C1.4975052,23.1582185 1.8171681,22.6107606 2.0018414,22.2910977 L3.87388488,19.5519333 L5.83685888,16.4940437 L16.7053977,16.4940437 L18.2109069,18.8226146 L18.2109069,15.8519055 L15.1961388,11.1938264 C14.8764759,10.6904276 14.6018096,9.73237629 14.6018096,9.09305048 L14.6018096,1.64612337 L15.6536037,1.64612337 C16.1110685,1.64612337 16.4766654,1.27958906 16.4766654,0.823061685 C16.4766654,0.3665343 16.1101311,0 15.6536037,0 L13.7815602,0 C13.3240955,0 12.9584985,0.3665343 12.9584985,0.823061685 L12.9584985,9.1811687 C12.9584985,10.0951609 13.3250328,11.3728751 13.8256193,12.1490654 L15.6067323,14.935101 L6.84178157,14.935101 L8.62289454,12.1490654 C9.12629331,11.3756874 9.49001534,10.0951609 9.49001534,9.1811687 L9.49001534,0.87274536 C9.49001534,0.412468275 9.12723074,0.0468714 8.66976594,0.0468714 L6.88865295,0.0468714 C6.43212558,0.0468714 6.06559128,0.4134057 6.06559128,0.86993307 C6.06559128,1.32646046 6.43212558,1.69299476 6.88865295,1.69299476 L7.93763475,1.69299476 L7.93763475,9.18398097 C7.93763475,9.77831025 7.66203096,10.783233 7.34330549,11.2847568 L2.82302823,18.2273478 L0.632259256,21.4670985 C-0.0530005191,22.4720213 -0.190802429,23.5238153 0.265724956,24.3909362 C0.813182836,25.3958588 2.04683793,25.9433168 3.69014901,25.9433168 L18.8061737,25.9433168 C19.172708,25.9433168 19.5354926,25.8992576 19.8579678,25.8523862 C19.4005029,25.4417928 19.0349061,24.894335 18.7621146,24.346877 L11.9573255,24.346877 L11.9573255,24.2971934 L11.9563881,24.2981307 Z M29.22006,3.88563858 L27.3480165,3.88563858 C26.9374232,3.88563858 26.5718262,4.20530148 26.5718262,4.66182887 C26.5718262,4.66182887 26.5718262,4.66182887 26.5718262,4.70588797 C26.5718262,4.79681849 26.5718262,4.88774898 26.5718262,4.98149178 L26.5718262,9.18210612 L21.181616,9.18210612 L21.181616,4.98149178 C21.181616,4.89056127 21.181616,4.84368987 21.181616,4.75275938 L21.181616,4.70870027 C21.181616,4.25217288 20.8150817,3.88563858 20.3585543,3.88563858 L18.4865108,3.88563858 C18.029046,3.88563858 17.6634491,4.25217288 17.6634491,4.70870027 C17.6634491,5.16522764 18.0299834,5.53176194 18.4865108,5.53176194 L19.5383048,5.53176194 L19.5383048,21.9723721 C19.5383048,24.1631412 21.3194178,25.992063 23.5579956,25.992063 L24.1054535,25.992063 C26.2962225,25.992063 28.1251443,24.2109499 28.1251443,21.9723721 L28.1251443,5.52894966 L29.1769383,5.52894966 C29.6344032,5.52894966 30,5.16241536 30,4.70588797 C30,4.24936059 29.6306534,3.88563858 29.2209975,3.88563858 L29.22006,3.88563858 Z M24.1523249,24.3450021 L23.604867,24.3450021 C22.2802814,24.3450021 21.2294247,23.2491489 21.2294247,21.96956 L21.2294247,10.7354241 L26.5287045,10.7354241 L26.5287045,21.9264382 C26.5287045,23.2510238 25.4769105,24.3459396 24.1532624,24.3459396 L24.1523249,24.3450021 Z M24.5619809,12.7002729 C24.014523,12.7002729 23.5570581,13.1577378 23.5570581,13.7051957 C23.5570581,14.2526535 24.014523,14.7101184 24.5619809,14.7101184 C25.1094387,14.7101184 25.5669036,14.2526535 25.5669036,13.7051957 C25.613775,13.1577378 25.1563101,12.7002729 24.5619809,12.7002729 Z M23.1942735,15.5303678 C22.6468157,15.5303678 22.1893509,15.9878325 22.1893509,16.5352905 C22.1893509,17.0827484 22.6468157,17.5402131 23.1942735,17.5402131 C23.7417315,17.5402131 24.1991963,17.0827484 24.1991963,16.5352905 C24.2432553,15.9878325 23.7857906,15.5303678 23.1942735,15.5303678 Z" id="path-1"></path>
            </g>
        </g>
    </g>
</svg>