<?xml version="1.0" encoding="UTF-8"?>
<svg width="35px" height="23px" viewBox="0 0 35 23" version="1.1" xmlns="http://www.w3.org/2000/svg" xmlns:xlink="http://www.w3.org/1999/xlink">
    <!-- Generator: Sketch 49.1 (51147) - http://www.bohemiancoding.com/sketch -->
    <title>laptop</title>
    <desc>Created with Sketch.</desc>
    <defs></defs>
    <g id="**desktop-FINAL" stroke="none" stroke-width="1" fill="none" fill-rule="evenodd">
        <g id="0013__AG" transform="translate(-555.000000, -724.000000)" fill="#FF8A54" fill-rule="nonzero">
            <g id="laptop" transform="translate(555.000000, 724.000000)">
                <path d="M26.0830981,9.5008872 L25.963,10.1892206 L25.5141764,10.1892206 C25.2451568,10.1892206 24.8158921,10.1892206 24.4868236,9.98985785 C24.0078039,9.8701029 23.5589804,9.61069113 23.3191275,9.4411814 C23.2892746,9.4113285 23.2295686,9.38113242 23.1997157,9.36123037 C22.9499118,9.21162252 22.8006471,9.21162252 22.6506961,9.36123037 C22.5607942,9.4710343 22.2317254,9.92980888 21.9321667,10.3590735 C21.8127549,10.5285833 21.693,10.7083872 21.6030981,10.8178481 C21.4236372,11.0474068 21.1841275,11.2169167 20.9645196,11.2169167 C20.7850589,11.2169167 20.635451,11.1373089 20.545549,10.90775 C20.3660882,10.5086814 20.2463333,6.71735785 20.2161372,4.57206372 C20.2161372,4.54221078 20.1862843,4.51235785 20.1567746,4.51235785 C20.1265785,4.51235785 20.0967254,4.54221078 20.0967254,4.57206372 C20.0967254,4.57206372 20.0967254,4.62216176 20.0668725,4.71172058 C19.5576568,6.86696568 18.3206471,11.9354461 18.1113333,12.5640736 C17.9613824,13.0530442 17.6920196,13.3423089 17.4226568,13.3423089 C17.2431961,13.3423089 17.0832942,13.232505 16.9937353,12.9730932 C16.7840785,12.4244167 16.6046176,11.6458382 16.4848628,11.1373089 C16.4546667,10.987701 16.4251568,10.8480442 16.3953039,10.7581422 C16.3352549,10.5882893 16.2752058,10.4489754 16.155451,10.4489754 C16.0658921,10.4489754 15.9461372,10.5285833 15.7666764,10.6483382 C15.4372647,10.8778971 14.8583921,11.2169167 14.2301078,11.2169167 L8.12398039,11.2169167 L8.27358824,10.4788285 L14.0805,10.4788285 C14.6792746,10.4788285 15.0083432,10.1892206 15.3175097,9.96000495 C15.4372647,9.84025 15.5268235,9.76029897 15.6469215,9.70059317 C16.1255981,9.38113242 16.5445686,9.4113285 16.8139314,9.79015188 C17.0537843,10.1295147 17.1831471,10.7083872 17.3330981,11.3967207 C17.3928039,11.5960833 17.4226568,11.8554951 17.4827058,12.0850539 C17.4827058,12.1348089 17.5722647,12.1348089 17.5722647,12.0850539 C18.0214314,9.84025 19.1390293,5.49029903 19.6475589,3.53441667 C19.8568725,2.79632843 20.1862843,2.50706372 20.3959411,2.50706372 C20.6653039,2.50706372 20.8746176,2.84608333 20.9048136,3.45480882 C20.9947157,4.77176961 21.1542746,9.24147543 21.1542746,10.0698089 C21.1542746,10.0996618 21.1542746,10.1593676 21.2143235,10.1593676 C21.2438333,10.1593676 21.2736863,10.1593676 21.2736863,10.1295147 C21.4836863,9.84025 21.9922157,9.1316715 22.3216275,8.81255393 C22.5607942,8.58299505 22.7405981,8.46324028 22.9499118,8.46324028 C23.1098136,8.46324028 23.2594215,8.52328925 23.4388824,8.6430442 L23.8581961,8.95221075 C24.1574118,9.15157355 24.3969215,9.36123037 24.6961372,9.4411814 C24.9356471,9.5008872 25.3645686,9.53074028 25.6637843,9.53074028 C25.8435882,9.53074028 26.023049,9.5008872 26.0830981,9.5008872 Z M22.5268235,20.0207893 L11.9084412,20.0207893 C11.6037353,20.0207893 11.3559902,19.7733872 11.3559902,19.4683382 C11.3559902,19.1632893 11.6037353,18.9158872 11.9084412,18.9158872 L22.5268235,18.9158872 C22.8315293,18.9158872 23.0792746,19.1632893 23.0792746,19.4683382 C23.0792746,19.7733872 22.8315293,20.0207893 22.5268235,20.0207893 Z M33.2797157,20.7303971 C33.2481471,20.8206422 33.1788333,20.8206422 33.1527549,20.8206422 L1.54741176,20.8206422 C1.52099019,20.8206422 1.45167647,20.8206422 1.42079411,20.7303971 C1.38956863,20.6398089 1.44412746,20.5969167 1.46505882,20.5811324 L6.68314706,16.5012304 C6.70613725,16.4830442 6.73530392,16.4730932 6.76515686,16.4730932 L27.9346667,16.4730932 C27.9645196,16.4730932 27.9940293,16.4830442 28.0177058,16.5015736 L33.235451,20.5807893 C33.2556961,20.5969167 33.3105981,20.6398089 33.2797157,20.7303971 Z M6.97515686,2.01328921 C6.97515686,1.69142647 7.25755882,1.40936764 7.57907843,1.40936764 L27.1207451,1.40936764 C27.442951,1.40936764 27.7250097,1.69142647 27.7250097,2.01328921 L27.7250097,3.38206372 L27.7250097,12.9693186 L27.7250097,14.4588775 C27.7250097,14.7807403 27.442951,15.062799 27.1207451,15.062799 L7.57907843,15.062799 C7.25755882,15.062799 6.97515686,14.7807403 6.97515686,14.4588775 L6.97515686,2.01328921 Z M34.1042746,19.4697107 L28.8981961,15.3997597 C29.0491764,15.1166715 29.1342746,14.7954951 29.1342746,14.4588775 L29.1342746,12.9693186 L29.1342746,3.38206372 L29.1342746,2.01328921 C29.1342746,0.886083328 28.2489804,0.000102935 27.120745,0.000102935 L7.57907843,0.000102935 C6.45221568,0.000102935 5.56589215,0.885397065 5.56589215,2.01328921 L5.56589215,14.4588775 C5.56589215,14.802701 5.65613725,15.1187304 5.80231372,15.3994167 L0.59623529,19.4697107 C0.0688333275,19.8818186 -0.131215683,20.5571128 0.0866764675,21.1895147 C0.304911757,21.8222597 0.878294112,22.2312793 1.54741176,22.2312793 L33.1527549,22.2312793 C33.8218725,22.2312793 34.3952549,21.8226029 34.6128039,21.1895147 C34.8310392,20.5571128 34.6313333,19.8818186 34.1042746,19.4697107 Z" id="path-1"></path>
            </g>
        </g>
    </g>
</svg>