<?xml version="1.0" encoding="UTF-8"?>
<svg width="38px" height="31px" viewBox="0 0 38 31" version="1.1" xmlns="http://www.w3.org/2000/svg" xmlns:xlink="http://www.w3.org/1999/xlink">
    <!-- Generator: Sketch 49.1 (51147) - http://www.bohemiancoding.com/sketch -->
    <title>videocall-2</title>
    <desc>Created with Sketch.</desc>
    <defs></defs>
    <g id="**desktop-FINAL" stroke="none" stroke-width="1" fill="none" fill-rule="evenodd">
        <g id="0013__AG" transform="translate(-313.000000, -609.000000)" fill="#939905" fill-rule="nonzero">
            <g id="videocall-2" transform="translate(313.000000, 609.000000)">
                <path d="M37.4470707,0.105130191 C37.0836473,-0.0765815337 36.6014581,-0.0136356357 36.2997928,0.223896018 L31.648923,4.09091141 L31.648923,2.39849834 C31.648923,1.25122043 30.6833569,0.283278922 29.5337036,0.283278922 L23.1310378,0.283278922 C21.9837598,0.283278922 21.0158183,1.24884513 21.0158183,2.39849834 L21.0158183,9.46506517 C21.0158183,10.6123431 21.9813844,11.5802845 23.1310378,11.5802845 L29.5337036,11.5802845 C30.6809815,11.5802845 31.648923,10.6147184 31.648923,9.46506517 L31.648923,7.77265211 L36.2997928,11.6396675 C36.4815046,11.8213791 36.7225992,11.8807621 36.9636938,11.8807621 C37.1454057,11.8807621 37.2677343,11.8213791 37.3865003,11.7619964 C37.7499237,11.5802845 37.9910183,11.2204241 37.9910183,10.7964301 L37.9910183,0.954305874 C38.0504011,0.650265347 37.8093065,0.290404872 37.445883,0.10394252 L37.4470707,0.105130191 Z M9.23809598,29.1475344 C9.24543884,29.5326266 8.91908959,29.8385791 8.53399746,29.8051282 C7.94493704,29.7537283 7.48886396,29.2748107 7.46846712,28.6857503 C7.40972425,26.9520198 7.25715598,23.5792003 7.10866707,22.3374414 C6.97323212,21.2025617 6.85085115,20.1827204 6.73907654,19.264863 C5.92565101,19.6320059 5.16117786,20.0146505 4.45463172,20.4119806 C3.44539663,20.9830919 2.86367909,21.3983713 2.71029494,21.6610824 C2.60096793,22.0763618 2.46308537,23.1043621 2.29991075,24.7385559 C2.13428849,26.3727499 1.99885354,27.7825786 1.88952655,28.9655948 C1.84628527,29.1850646 1.7361424,29.3759788 1.56072967,29.5416013 C1.38531694,29.7072235 1.198482,29.7888108 1.00267245,29.7888108 L0.936586722,29.7888108 C0.694272388,29.7659664 0.497646955,29.6639822 0.345078684,29.4755155 C0.191694534,29.2894964 0.115818319,29.0749218 0.115818319,28.8326073 C0.138662779,28.6563787 0.177008807,28.2182549 0.230856441,27.5166041 C0.284704075,26.8149531 0.355685035,26.0406896 0.445431079,25.1962608 C0.535177123,24.351832 0.631450161,23.5392224 0.740777149,22.7616954 C0.850104156,21.9841683 0.949640691,21.4407966 1.03612324,21.1323966 C1.25559311,20.4087172 2.06575514,19.6736155 3.47068871,18.9270915 C4.83482862,18.2034121 6.03089864,17.6371961 7.06297817,17.2211009 C7.13477501,17.1754119 7.2082036,17.1346182 7.28979091,17.1166691 L7.35342902,17.1011674 C7.38361631,17.0962722 7.40972425,17.1085103 7.43991157,17.1060627 C7.4937592,17.1011674 7.54923857,17.1085103 7.60308619,17.1158532 C7.64877509,17.123196 7.69527987,17.1289072 7.73852113,17.1435928 C7.76870845,17.1533833 7.79971162,17.148488 7.83071481,17.1615421 C8.05997516,17.2610786 8.22070216,17.4193579 8.30718473,17.638012 C8.32758155,17.6861485 8.32513394,17.7351008 8.33492441,17.7832373 C8.34226726,17.8085294 8.35776887,17.8264787 8.3626641,17.8517707 C8.37816569,18.0279993 8.43690856,18.4636756 8.53318158,19.162063 C8.63271811,19.8580028 8.72980701,20.6306347 8.82608005,21.4717999 C8.92316895,22.3154128 9.00230864,23.1288383 9.06349913,23.9120765 C9.11163565,24.5419306 9.20872455,27.6903851 9.2372801,29.144271 L9.23809598,29.1475344 Z M11.8679653,17.7522466 C11.1875271,17.7522466 10.4907715,17.5711229 9.78014596,17.2088751 C9.06625694,16.8466274 8.41355843,16.3473131 7.8220504,15.7125638 C7.23054236,15.0778144 6.74591371,14.33537 6.37387556,13.4917571 C6.0018374,12.6481442 5.81581832,11.7425252 5.81581832,10.7765313 L5.81581832,9.39444217 C5.81581832,7.98950861 6.3028946,6.70695601 7.27949476,5.54433678 C8.25609491,4.38171755 9.78585705,3.8 11.8687812,3.8 C14.1075371,3.8 15.6805406,4.39150804 16.591055,5.57697171 C17.5015694,6.76243539 17.9576425,8.03438163 17.9576425,9.3936263 L17.9576425,10.7757154 C17.9576425,11.762106 17.7716234,12.6832267 17.3995854,13.5390778 C17.0275471,14.3949288 16.5502614,15.1349256 15.9693596,15.7598844 C15.388458,16.3848432 14.7357595,16.8743672 14.0112641,17.2235608 C13.2843211,17.5752022 12.5736956,17.7514308 11.8695971,17.7514308 L11.8679653,17.7522466 Z M7.7166342,9.28576248 L7.7166342,10.7004865 C7.7166342,12.0597311 8.19310411,13.2345885 9.14685982,14.2217951 C10.1006155,15.2090014 10.985022,15.7034206 11.7959999,15.7034206 C12.6298223,15.7034206 13.5223875,15.2318459 14.4785908,14.2886965 C15.4347942,13.3455472 15.9088165,12.1494772 15.9088165,10.7013024 L15.9088165,9.28657836 C15.9088165,8.95778148 15.8753656,8.65182904 15.80928,8.36627344 C15.7431942,8.08071784 15.6436578,7.81800668 15.5131179,7.57569237 C15.1843211,8.08071784 14.5977083,8.61103539 13.7540955,9.17154024 C12.9104827,9.7320451 11.6328253,10.1530356 9.92193931,10.4385912 C9.89909487,10.4385912 9.87869804,10.4385912 9.85585358,10.4385912 C9.83300914,10.4385912 9.81261232,10.4385912 9.78976786,10.4385912 C9.59314245,10.4385912 9.4120186,10.3725055 9.24639636,10.2419658 C9.0807741,10.1114261 8.98858044,9.93601339 8.965736,9.71654349 C8.94289154,9.51991808 8.99918679,9.32166091 9.13135824,9.12503547 C9.26352969,8.92841004 9.45036465,8.80602907 9.68941546,8.7627878 C11.4663872,8.47723218 12.6567461,8.05624164 13.2588605,7.4957368 C13.8634225,6.93767957 14.207721,6.52403188 14.2942035,6.26132072 C13.9882511,6.06469529 13.6186606,5.92191749 13.1927748,5.83298733 C12.7644414,5.74650476 12.2977619,5.7 11.7951841,5.7 C10.5460823,5.7 9.5515329,6.02390164 8.81724708,6.67170492 C8.08296125,7.31706057 7.71581832,8.18841309 7.71581832,9.2849466 L7.7166342,9.28576248 Z M24.3607096,27.5151276 C24.2946238,26.8142926 24.2179318,26.0392131 24.1314493,25.1947843 C24.0449666,24.3503557 23.9503254,23.5377461 23.8507889,22.7602189 C23.7512523,21.9826918 23.6598746,21.4393203 23.5701285,21.1309203 C23.3506586,20.4072407 22.5404967,19.6721391 21.1355629,18.9256152 C19.7306294,18.1790911 18.5043721,17.5998212 17.4510799,17.1820942 C17.4176291,17.1665927 17.3849941,17.1690403 17.3515435,17.1568022 C17.3205402,17.1470117 17.2952482,17.1233514 17.2650608,17.1160084 L17.2014228,17.1005069 C17.1810259,17.0980593 17.1655244,17.1054021 17.1451275,17.1029545 C17.096991,17.0980593 17.0504862,17.1054021 17.0023497,17.1102974 C16.9281053,17.1176402 16.8571243,17.1282465 16.7910385,17.1535386 C16.781248,17.1584339 16.7706416,17.1559863 16.7632989,17.1584339 C16.742902,17.1657769 16.7322957,17.183726 16.7118988,17.1943323 C16.6580513,17.2196244 16.6050194,17.2375737 16.5536195,17.2759197 C16.5258798,17.2987641 16.5103781,17.3273196 16.4850861,17.3526116 C16.4826385,17.3550594 16.4801909,17.357507 16.4777432,17.3599546 C16.3374131,17.4978372 16.2329814,17.6561165 16.18974,17.8543737 C16.1742385,18.0306023 16.1154956,18.4662786 16.0192226,19.164666 C15.919686,19.8606058 15.8225971,20.6332377 15.7263241,21.4744029 C15.6292351,22.3180156 15.5500955,23.1314411 15.4889051,23.9146795 C15.4407684,24.5339271 15.3436795,27.6807498 15.3159399,29.13382 C15.308597,29.518912 15.6349463,29.8248645 16.0200385,29.7914137 C16.6090989,29.7400137 17.0651719,29.2610961 17.0855687,28.6720357 C17.1443116,26.9383053 17.2968799,23.5654857 17.4453687,22.3237268 C17.5808037,21.183952 17.7031846,20.161663 17.8174069,19.2413581 C18.6357276,19.6011581 19.4214135,19.9756439 20.1377502,20.3835804 C21.1575916,20.9644822 21.733598,21.3879204 21.8641377,21.6506315 C21.9971252,22.0659109 22.1447981,23.093911 22.3079728,24.728105 C22.4711474,26.3622988 22.5984237,27.7721277 22.6849062,28.9551437 C22.7077506,29.1974581 22.8048395,29.3940836 22.9810681,29.5466519 C23.1572967,29.6992201 23.3531063,29.7759121 23.5725761,29.7759121 C23.5954206,29.7759121 23.6288714,29.7759121 23.6721127,29.7759121 C23.9144269,29.7530677 24.1110524,29.6510835 24.2636207,29.4626168 C24.4170049,29.2765978 24.4830905,29.062023 24.460246,28.8197088 C24.4626938,28.6540866 24.429243,28.2151469 24.3631572,27.5143117 L24.3607096,27.5151276 Z M13.2364948,30.2492589 L13.2364948,19.0310032 C13.2364948,19.0130539 13.2209932,19 13.2054916,19 L11.5460056,19 C11.5280564,19 11.5158183,19.0155015 11.5158183,19.0310032 L11.5158183,30.2492589 C11.5158183,30.2672082 11.5313199,30.2802622 11.5460056,30.2802622 L13.2054916,30.2802622 C13.2209932,30.2802622 13.2364948,30.2647605 13.2364948,30.2492589 Z M30.2617381,9.52919872 C30.2617381,9.89262216 29.9576977,10.2524826 29.5384543,10.2524826 L23.1322254,10.2524826 C22.768802,10.2524826 22.4089414,9.9484421 22.4089414,9.52919872 L22.4089414,2.46263189 C22.4089414,2.09920846 22.7129821,1.73934799 23.1322254,1.73934799 L29.5348912,1.73934799 C29.8983147,1.73934799 30.2581751,2.04338852 30.2581751,2.46263189 L30.2581751,9.52919872 L30.2617381,9.52919872 Z M36.6644039,10.1301538 L31.7094935,5.96622386 L36.6644039,1.79873091 L36.6644039,10.1313415 L36.6644039,10.1301538 Z" id="path-1"></path>
            </g>
        </g>
    </g>
</svg>