<?xml version="1.0" encoding="UTF-8"?>
<svg width="30px" height="34px" viewBox="0 0 30 34" version="1.1" xmlns="http://www.w3.org/2000/svg" xmlns:xlink="http://www.w3.org/1999/xlink">
    <!-- Generator: Sketch 49.1 (51147) - http://www.bohemiancoding.com/sketch -->
    <title>general-medicine</title>
    <desc>Created with Sketch.</desc>
    <defs></defs>
    <g id="**desktop-FINAL" stroke="none" stroke-width="1" fill="none" fill-rule="evenodd">
        <g id="0013__AG" transform="translate(-557.000000, -608.000000)" fill="#C6007E" fill-rule="nonzero">
            <g id="general-medicine" transform="translate(557.000000, 608.000000)">
                <path d="M22.5640317,11.0510541 L22.5640317,5.17228605 C22.5640317,3.27762285 21.0276775,1.7381439 19.1298895,1.7381439 L17.0237823,1.7381439 L17.0237823,0.986111567 C17.063363,0.481979083 16.6852637,0.04242555 16.1811312,0.0028449 C15.6769987,-0.0367357333 15.2374452,0.341363617 15.1978645,0.8454961 C15.1947397,0.891326333 15.1947397,0.94028135 15.1978645,0.985069967 L15.1978645,4.14214757 C15.1582838,4.64628005 15.5363832,5.08583357 16.0405157,5.12541422 C16.5446482,5.16499487 16.9842017,4.78689552 17.0237823,4.28276303 C17.0269072,4.2369328 17.0269072,4.18797778 17.0237823,4.14318917 L17.0237823,3.54739623 L19.1298895,3.54739623 C20.028787,3.54739623 20.7537378,4.27338867 20.7537378,5.17124445 L20.7537378,11.0531373 C20.6724933,12.3197181 20.0704508,13.4977632 19.0871842,14.3018753 L13.0428023,18.5786687 L6.99529573,14.2987505 C6.01202907,13.4946383 5.40686177,12.3165933 5.32874207,11.0500125 L5.32874207,5.17124445 C5.32874207,4.27338867 6.0547345,3.54739623 6.95259028,3.54739623 L8.43686465,3.54739623 L8.43686465,4.14318917 C8.3983256,4.64732165 8.77538335,5.08687517 9.27951583,5.12645582 C9.78364832,5.16603647 10.2232018,4.7879371 10.2627825,4.28380463 C10.2659073,4.2379744 10.2659073,4.18901938 10.2627825,4.14423075 L10.2627825,0.987153167 C10.3013215,0.483020683 9.92426378,0.04346715 9.4201313,0.0038865 C8.91599882,-0.03569415 8.4764453,0.342405217 8.43686465,0.8465377 C8.43373985,0.892367917 8.43373985,0.941322933 8.43686465,0.986111567 L8.43686465,1.71835358 L6.93592475,1.71835358 C5.04126157,1.70585443 3.49240825,3.23491742 3.48199228,5.1295806 C3.48199228,5.14312135 3.48199228,5.1587453 3.48199228,5.17228605 L3.48199228,11.0541789 C3.57365275,12.9061366 4.46525895,14.6278948 5.9234934,15.7705257 L12.241815,20.2368895 L12.241815,27.849915 C12.1376553,28.9498403 11.5908174,29.9622718 10.7252511,30.6559747 C9.68053032,31.4309222 8.13792658,31.6746557 6.39325322,31.3559273 C3.68510352,30.8580443 1.62170177,28.999837 1.93730537,27.3072435 C2.16853968,26.4416772 2.81641242,25.7448493 3.6653132,25.4490362 C4.87564778,24.9636523 6.20055795,24.8438688 7.4765131,25.0980183 C8.39103442,25.2511328 9.24410157,25.6511058 9.95030368,26.2500235 C10.1846628,26.4458435 10.4158971,26.6281228 10.6440066,26.7906118 L10.6440066,24.4897262 C9.63470008,23.8033143 8.4733205,23.3731352 7.25881953,23.239811 C5.7682956,23.0221173 4.24444058,23.2075215 2.85182668,23.7803993 C1.43942247,24.304322 0.391576849,25.5084072 0.0624324993,26.9801823 C-0.441699984,29.7404118 2.15916532,32.454811 5.98703077,33.1578883 C6.58594848,33.2714223 7.19111578,33.3307933 7.80044947,33.3307933 C9.23264402,33.370374 10.6356739,32.9464443 11.8074695,32.1235835 C12.9365595,31.261142 13.7083822,30.0112268 13.971906,28.6144465 C14.010445,28.4290423 14.0375265,28.272803 14.0531505,28.148853 C14.0687745,28.0249032 14.0531505,27.8624142 14.0791903,27.8072095 L14.0791903,20.0535687 L20.1329465,15.7694842 C21.591181,14.6237285 22.4765377,12.9019703 22.5640317,11.0531373 L22.5640317,11.0510541 Z M24.025391,16.981902 C21.134962,16.9756523 18.7851213,19.3161187 18.7819965,22.2096725 C18.7788717,23.316889 19.1267648,24.3938993 19.7777623,25.2886303 C19.1100992,26.261481 18.0851687,26.9322688 16.9227475,27.151004 C16.4925683,27.2124582 16.0571813,27.2124582 15.6270022,27.151004 L15.6270022,28.9967122 C15.8446957,28.9967122 16.060306,29.0362928 16.27175,29.0362928 C16.5904785,29.0331682 16.9102483,29.0071282 17.225852,28.9550483 C18.7819965,28.6946493 20.1777352,27.844707 21.1255875,26.5822927 C23.5306328,28.1998913 26.7897868,27.5624345 28.4073855,25.1563477 C30.0249842,22.7502608 29.3875273,19.4921483 26.9814405,17.8745497 C26.1096247,17.2881312 25.077403,16.9756523 24.0264325,16.9829435 L24.025391,16.981902 Z M24.025391,25.6469393 C22.1338525,25.6469393 20.6047895,24.11371 20.6047895,22.226338 C20.6047895,20.3347995 22.138019,18.8057367 24.025391,18.8057367 C25.9169293,18.8057367 27.4459923,20.338966 27.4459923,22.226338 C27.4491172,24.1178763 25.9190125,25.6511058 24.0285157,25.6542305 C24.025391,25.6542305 24.025391,25.6542305 24.0222662,25.6542305 L24.0222662,25.647981 L24.025391,25.6469393 Z M24.0316405,20.6629023 C24.8972068,20.6629023 25.5971593,21.3628548 25.5971593,22.2284212 C25.5971593,23.0939875 24.894082,23.79394 24.0316405,23.79394 C23.169199,23.79394 22.4661217,23.0939875 22.4661217,22.2284212 C22.4661217,21.3628548 23.1660742,20.6629023 24.0316405,20.6629023 Z" id="path-1"></path>
            </g>
        </g>
    </g>
</svg>