<?xml version="1.0" encoding="UTF-8"?>
<svg width="68px" height="40px" viewBox="0 0 68 40" version="1.1" xmlns="http://www.w3.org/2000/svg" xmlns:xlink="http://www.w3.org/1999/xlink">
    <!-- Generator: Sketch 49.1 (51147) - http://www.bohemiancoding.com/sketch -->
    <title>Page 1</title>
    <desc>Created with Sketch.</desc>
    <defs>
        <polygon id="path-1" points="0 0.164528302 2.99363522 0.164528302 2.99363522 39.7483522 0 39.7483522"></polygon>
        <polygon id="path-3" points="0.179144654 0.164528302 3.17257862 0.164528302 3.17257862 39.7483522 0.179144654 39.7483522"></polygon>
        <polygon id="path-5" points="0 39.8354717 67.8266667 39.8354717 67.8266667 0.251572327 0 0.251572327"></polygon>
    </defs>
    <g id="**desktop-FINAL" stroke="none" stroke-width="1" fill="none" fill-rule="evenodd">
        <g id="0012_AG" transform="translate(-782.000000, -387.000000)">
            <g id="Page-1" transform="translate(782.000000, 387.000000)">
                <g id="Group-3" transform="translate(0.000000, 0.087044)">
                    <mask id="mask-2" fill="white">
                        <use xlink:href="#path-1"></use>
                    </mask>
                    <g id="Clip-2"></g>
                    <path d="M2.75514465,39.7483522 L0.238415094,39.7483522 C0.106842767,39.7483522 -7.54716981e-05,39.6278491 -7.54716981e-05,39.479673 L-7.54716981e-05,0.433383648 C-7.54716981e-05,0.284955975 0.106842767,0.16445283 0.238415094,0.16445283 L2.75514465,0.16445283 C2.88671698,0.16445283 2.99363522,0.284955975 2.99363522,0.433383648 C2.99363522,0.581811321 2.88671698,0.702314465 2.75514465,0.702314465 L0.47690566,0.702314465 L0.47690566,39.2104906 L2.75514465,39.2104906 C2.88671698,39.2104906 2.99363522,39.3309937 2.99363522,39.479673 C2.99363522,39.6278491 2.88671698,39.7483522 2.75514465,39.7483522" id="Fill-1" fill="#0079C8" mask="url(#mask-2)"></path>
                </g>
                <g id="Group-6" transform="translate(64.654088, 0.087044)">
                    <mask id="mask-4" fill="white">
                        <use xlink:href="#path-3"></use>
                    </mask>
                    <g id="Clip-5"></g>
                    <path d="M2.93436478,39.7483522 L0.417383648,39.7483522 C0.286062893,39.7483522 0.179144654,39.6278491 0.179144654,39.479673 C0.179144654,39.3309937 0.286062893,39.2104906 0.417383648,39.2104906 L2.69587421,39.2104906 L2.69587421,0.702314465 L0.417383648,0.702314465 C0.286062893,0.702314465 0.179144654,0.581811321 0.179144654,0.433383648 C0.179144654,0.284955975 0.286062893,0.16445283 0.417383648,0.16445283 L2.93436478,0.16445283 C3.06593711,0.16445283 3.17260377,0.284955975 3.17260377,0.433383648 L3.17260377,39.479673 C3.17260377,39.6278491 3.06593711,39.7483522 2.93436478,39.7483522" id="Fill-4" fill="#0079C8" mask="url(#mask-4)"></path>
                </g>
                <path d="M37.503195,8.41403774 L37.503195,8.40548428 C37.503195,7.55944654 38.1409308,6.86636478 39.0551447,6.86636478 C39.6164025,6.86636478 39.9522516,7.05353459 40.2287296,7.32548428 L39.8121258,7.80598742 C39.5824403,7.59768553 39.348478,7.47013836 39.0508679,7.47013836 C38.5492327,7.47013836 38.1877233,7.88674214 38.1877233,8.39718239 L38.1877233,8.40548428 C38.1877233,8.91592453 38.5406792,9.34108176 39.0508679,9.34108176 C39.3909937,9.34108176 39.5992956,9.20498113 39.8332579,8.99240252 L40.2498616,9.41328302 C39.9436981,9.74057862 39.6038239,9.94460377 39.0294843,9.94460377 C38.153761,9.94460377 37.503195,9.26862893 37.503195,8.41403774" id="Fill-7" fill="#0079C8"></path>
                <path d="M40.7041258,7.61474214 L41.3504151,7.61474214 L41.3504151,8.07386164 C41.482239,7.75914465 41.6948176,7.5551195 42.0774591,7.57222642 L42.0774591,8.24820126 L42.0434969,8.24820126 C41.6140629,8.24820126 41.3504151,8.50757233 41.3504151,9.05172327 L41.3504151,9.89373585 L40.7041258,9.89373585 L40.7041258,7.61474214 Z" id="Fill-9" fill="#0079C8"></path>
                <path d="M42.4641509,9.09013836 L42.4641509,7.61466667 L43.1101887,7.61466667 L43.1101887,8.88611321 C43.1101887,9.19227673 43.2550943,9.34950943 43.5013836,9.34950943 C43.7481761,9.34950943 43.9054088,9.19227673 43.9054088,8.88611321 L43.9054088,7.61466667 L44.5516981,7.61466667 L44.5516981,9.89366038 L43.9054088,9.89366038 L43.9054088,9.57064151 C43.7567296,9.76183648 43.565283,9.9361761 43.2377358,9.9361761 C42.7489308,9.9361761 42.4641509,9.61315723 42.4641509,9.09013836" id="Fill-11" fill="#0079C8"></path>
                <polygon id="Fill-13" fill="#0079C8" points="45.0528302 9.4387673 46.2306918 8.13763522 45.0908176 8.13763522 45.0908176 7.61486792 47.0342138 7.61486792 47.0342138 8.06971069 45.8520755 9.37084277 47.0342138 9.37084277 47.0342138 9.89386164 45.0528302 9.89386164"></polygon>
                <path d="M48.9851321,8.66500629 L48.2284025,8.66500629 L48.2284025,9.31984906 L49.0065157,9.31984906 C49.2955723,9.31984906 49.4699119,9.21771069 49.4699119,8.99657862 L49.4699119,8.98802516 C49.4699119,8.78827673 49.3209811,8.66500629 48.9851321,8.66500629 Z M49.3041258,7.79758491 C49.3041258,7.60186164 49.1509182,7.49142138 48.8746918,7.49142138 L48.2284025,7.49142138 L48.2284025,8.12060377 L48.8321761,8.12060377 C49.1212327,8.12060377 49.3041258,8.02701887 49.3041258,7.80588679 L49.3041258,7.79758491 Z M47.5906667,6.91733333 L48.9723019,6.91733333 C49.3126792,6.91733333 49.5803522,7.01091824 49.7506667,7.18098113 C49.8865157,7.31708176 49.9546918,7.48286792 49.9546918,7.68689308 L49.9546918,7.69544654 C49.9546918,8.0312956 49.7760755,8.21846541 49.5634969,8.33745912 C49.9078994,8.46928302 50.120478,8.66928302 50.120478,9.06877987 L50.120478,9.07733333 C50.120478,9.62173585 49.6782138,9.89368553 49.0065157,9.89368553 L47.5906667,9.89368553 L47.5906667,6.91733333 Z" id="Fill-15" fill="#0079C8"></path>
                <mask id="mask-6" fill="white">
                    <use xlink:href="#path-5"></use>
                </mask>
                <g id="Clip-18"></g>
                <polygon id="Fill-17" fill="#0079C8" mask="url(#mask-6)" points="50.6213836 9.89383648 51.267673 9.89383648 51.267673 6.78993711 50.6213836 6.78993711"></polygon>
                <path d="M53.2232704,9.09013836 L53.2232704,8.97542138 C53.1128302,8.9243522 52.9679245,8.89038994 52.8106918,8.89038994 C52.5344654,8.89038994 52.3644025,9.00083019 52.3644025,9.20485535 L52.3644025,9.21340881 C52.3644025,9.38774843 52.508805,9.48963522 52.7171069,9.48963522 C53.0189937,9.48963522 53.2232704,9.32410063 53.2232704,9.09013836 M51.7394969,9.23881761 L51.7394969,9.23051572 C51.7394969,8.73290566 52.1176101,8.50322013 52.6577358,8.50322013 C52.8871698,8.50322013 53.052956,8.54171069 53.214717,8.5970566 L53.214717,8.55856604 C53.214717,8.29064151 53.0489308,8.14196226 52.7256604,8.14196226 C52.4791195,8.14196226 52.3047799,8.18875472 52.096478,8.2652327 L51.9349686,7.77189937 C52.1857862,7.66145912 52.432327,7.58925786 52.8194969,7.58925786 C53.1722013,7.58925786 53.4272956,7.68259119 53.588805,7.8443522 C53.7588679,8.01441509 53.8355975,8.2652327 53.8355975,8.57139623 L53.8355975,9.89366038 L53.2104403,9.89366038 L53.2104403,9.6471195 C53.052956,9.82145912 52.8363522,9.9361761 52.5216352,9.9361761 C52.0922013,9.9361761 51.7394969,9.68963522 51.7394969,9.23881761" id="Fill-19" fill="#0079C8" mask="url(#mask-6)"></path>
                <path d="M54.3919748,7.61474214 L55.0380126,7.61474214 L55.0380126,7.93801258 C55.1869434,7.74656604 55.3783899,7.57222642 55.7059371,7.57222642 C56.1947421,7.57222642 56.479522,7.89524528 56.479522,8.41826415 L56.479522,9.89373585 L55.8332327,9.89373585 L55.8332327,8.62228931 C55.8332327,8.31637736 55.6885786,8.15914465 55.4420377,8.15914465 C55.1954969,8.15914465 55.0380126,8.31637736 55.0380126,8.62228931 L55.0380126,9.89373585 L54.3919748,9.89373585 L54.3919748,7.61474214 Z" id="Fill-20" fill="#0079C8" mask="url(#mask-6)"></path>
                <path d="M56.9295597,8.76696855 L56.9295597,8.75841509 C56.9295597,8.10784906 57.4271698,7.57225157 58.1245283,7.57225157 C58.5539623,7.57225157 58.8216352,7.71690566 59.0342138,7.95489308 L58.6389937,8.38005031 C58.4943396,8.22709434 58.3499371,8.1292327 58.12,8.1292327 C57.7969811,8.1292327 57.5672956,8.41401258 57.5672956,8.75011321 L57.5672956,8.75841509 C57.5672956,9.10709434 57.792956,9.38784906 58.1456604,9.38784906 C58.3625157,9.38784906 58.511195,9.29426415 58.6686792,9.14533333 L59.047044,9.52797484 C58.8259119,9.77049057 58.5708176,9.94483019 58.1159748,9.94483019 C57.4314465,9.94483019 56.9295597,9.41753459 56.9295597,8.76696855" id="Fill-21" fill="#0079C8" mask="url(#mask-6)"></path>
                <path d="M60.8154214,9.09013836 L60.8154214,8.97542138 C60.7049811,8.9243522 60.5600755,8.89038994 60.4028428,8.89038994 C60.1266164,8.89038994 59.9563019,9.00083019 59.9563019,9.20485535 L59.9563019,9.21340881 C59.9563019,9.38774843 60.100956,9.48963522 60.3092579,9.48963522 C60.6111447,9.48963522 60.8154214,9.32410063 60.8154214,9.09013836 M59.3313962,9.23881761 L59.3313962,9.23051572 C59.3313962,8.73290566 59.709761,8.50322013 60.2498868,8.50322013 C60.4793208,8.50322013 60.6451069,8.54171069 60.8068679,8.5970566 L60.8068679,8.55856604 C60.8068679,8.29064151 60.6410818,8.14196226 60.3178113,8.14196226 C60.0712704,8.14196226 59.8969308,8.18875472 59.6886289,8.2652327 L59.5271195,7.77189937 C59.7779371,7.66145912 60.0242264,7.58925786 60.4113962,7.58925786 C60.7643522,7.58925786 61.0194465,7.68259119 61.180956,7.8443522 C61.3510189,8.01441509 61.4277484,8.2652327 61.4277484,8.57139623 L61.4277484,9.89366038 L60.8025912,9.89366038 L60.8025912,9.6471195 C60.6451069,9.82145912 60.4285031,9.9361761 60.1137862,9.9361761 C59.6843522,9.9361761 59.3313962,9.68963522 59.3313962,9.23881761" id="Fill-22" fill="#0079C8" mask="url(#mask-6)"></path>
                <path d="M32.952805,20.1314465 L32.952805,20.0433962 C32.952805,14.054717 28.5930566,9.07861635 22.4720503,9.07861635 C16.351044,9.07861635 12.0798491,13.9666667 12.0798491,19.9553459 L12.0798491,20.0433962 C12.0798491,26.032327 16.4390943,30.9644025 22.5601006,30.9644025 C28.6811069,30.9644025 32.952805,26.1203774 32.952805,20.1314465 M6.39934591,20.1314465 L6.39934591,20.0433962 C6.39934591,11.3684277 13.0926792,4.1027673 22.5601006,4.1027673 C32.0280252,4.1027673 38.6330566,11.2803774 38.6330566,19.9553459 L38.6330566,20.0433962 C38.6330566,28.7183648 31.9397233,35.9842767 22.4720503,35.9842767 C13.0046289,35.9842767 6.39934591,28.8064151 6.39934591,20.1314465" id="Fill-23" fill="#0079C8" mask="url(#mask-6)"></path>
                <polygon id="Fill-24" fill="#0079C8" mask="url(#mask-6)" points="40.4400252 12.2321006 47.0027925 12.2321006 54.4646792 21.4917233 54.4646792 12.2321006 61.4168805 12.2321006 61.4168805 33.208956 55.183673 33.208956 47.3927296 23.5297107 47.3927296 33.208956 40.4400252 33.208956"></polygon>
            </g>
        </g>
    </g>
</svg>