<?xml version="1.0" encoding="UTF-8"?>
<svg width="29px" height="34px" viewBox="0 0 29 34" version="1.1" xmlns="http://www.w3.org/2000/svg" xmlns:xlink="http://www.w3.org/1999/xlink">
    <!-- Generator: Sketch 49.1 (51147) - http://www.bohemiancoding.com/sketch -->
    <title>linear</title>
    <desc>Created with Sketch.</desc>
    <defs></defs>
    <g id="**desktop-FINAL" stroke="none" stroke-width="1" fill="none" fill-rule="evenodd">
        <g id="0013__AG" transform="translate(-317.000000, -665.000000)" fill="#40A2A4" fill-rule="nonzero">
            <g id="linear" transform="translate(317.000000, 665.000000)">
                <path d="M24.714434,13.0841122 L24.714434,15.7840083 C24.714434,22.5337487 19.1069575,27.933541 14.4340602,27.933541 C9.76116303,27.933541 4.1536864,22.5337487 4.1536864,15.7840083 L4.1536864,13.0841122 C4.1536864,8.41121495 7.37279335,3.73831775 14.4340602,3.73831775 C21.4953272,3.73831775 24.714434,8.41121495 24.714434,13.0841122 Z M22.6375908,12.98027 C22.6375908,8.51505712 19.4184838,5.81516095 14.4340602,5.81516095 C9.44963655,5.81516095 6.2305296,8.61889927 6.2305296,12.98027 L6.2305296,15.7840083 C6.2305296,21.2876428 11.1111111,25.7528557 14.4340602,25.7528557 C14.4340602,25.7528557 14.4340602,25.7528557 14.4340602,25.7528557 C17.6531672,25.7528557 22.6375908,21.2876428 22.6375908,15.7840083 L22.6375908,12.98027 Z M27.6220145,9.13811007 C27.310488,9.13811007 27.1028037,9.24195223 26.8951195,9.3457944 C25.1298027,3.84215992 20.3530633,0 14.4340602,0 C8.51505712,0.103842167 3.6344756,3.84215992 1.97300103,9.44963655 C1.76531672,9.24195223 1.45379023,9.13811007 1.24610592,9.13811007 C0.623052967,9.13811007 0,9.65732087 0,10.384216 L0,17.8608515 C0,18.4839045 0.5192108,19.1069575 1.24610592,19.1069575 C1.34994808,19.1069575 1.5576324,19.1069575 1.66147457,19.0031153 C1.86915888,26.4797508 4.88058152,30.9449637 10.1765317,31.6718588 C10.2803738,32.6064382 11.1111111,33.3333333 12.0456905,33.3333333 C13.0841122,33.3333333 13.9148495,32.502596 13.9148495,31.4641745 C13.9148495,30.4257528 13.0841122,29.5950155 12.0456905,29.5950155 C11.2149533,29.5950155 10.4880582,30.2180685 10.1765317,30.9449637 C3.42679128,29.906542 2.38836968,22.741433 2.38836968,18.2762202 C2.38836968,18.2762202 2.38836968,18.172378 2.38836968,18.172378 C2.38836968,18.0685358 2.38836968,17.9646937 2.38836968,17.9646937 L2.38836968,14.953271 C2.596054,14.8494288 2.80373832,14.5379023 2.80373832,14.2263758 C2.80373832,7.06126687 7.788162,1.66147457 14.4340602,1.66147457 C21.0799585,1.66147457 26.0643822,6.95742472 26.0643822,14.0186917 C26.0643822,14.330218 26.2720665,14.5379023 26.4797508,14.7455867 L26.4797508,17.7570093 C26.4797508,18.3800623 26.9989615,19.0031153 27.7258567,19.0031153 C28.3489097,19.0031153 28.9719627,18.4839045 28.9719627,17.7570093 L28.9719627,10.384216 C28.8681205,9.76116303 28.3489097,9.13811007 27.6220145,9.13811007 Z M18.4839045,21.9106957 C18.795431,21.5991693 18.8992732,21.0799585 18.5877467,20.768432 C18.2762202,20.4569055 17.7570093,20.3530633 17.4454828,20.6645898 C17.0301142,20.9761163 15.9916927,22.2222222 14.4340602,22.2222222 C12.8764278,22.2222222 11.8380062,20.9761163 11.4226376,20.6645898 C11.1111111,20.3530633 10.5919003,20.4569055 10.2803738,20.768432 C9.96884735,21.0799585 10.0726895,21.5991693 10.384216,21.9106957 C11.2149533,22.6375908 12.7725857,23.7798547 14.4340602,23.7798547 C16.0955348,23.8836968 17.549325,22.6375908 18.4839045,21.9106957 Z" id="path-1"></path>
            </g>
        </g>
    </g>
</svg>