<?xml version="1.0" encoding="UTF-8"?>
<svg width="21px" height="27px" viewBox="0 0 21 27" version="1.1" xmlns="http://www.w3.org/2000/svg" xmlns:xlink="http://www.w3.org/1999/xlink">
    <!-- Generator: Sketch 49.1 (51147) - http://www.bohemiancoding.com/sketch -->
    <title>linear</title>
    <desc>Created with Sketch.</desc>
    <defs></defs>
    <g id="**desktop-FINAL" stroke="none" stroke-width="1" fill="none" fill-rule="evenodd">
        <g id="0013__AG" transform="translate(-768.000000, -721.000000)" fill="#FF8A54" fill-rule="nonzero">
            <g id="linear" transform="translate(768.000000, 721.000000)">
                <path d="M3.28125,22.3125 L9.84375,22.3125 L9.84375,21 L3.28125,21 L3.28125,22.3125 Z M3.28125,19.03125 L17.0625,19.03125 L17.0625,17.71875 L3.28125,17.71875 L3.28125,19.03125 Z M3.28125,15.75 L17.0625,15.75 L17.0625,14.4375 L3.28125,14.4375 L3.28125,15.75 Z M3.28125,12.46875 L17.0625,12.46875 L17.0625,11.15625 L3.28125,11.15625 L3.28125,12.46875 Z M3.28125,9.1875 L11.15625,9.1875 L11.15625,7.875 L3.28125,7.875 L3.28125,9.1875 Z M3.28125,5.90625 L11.15625,5.90625 L11.15625,4.59375 L3.28125,4.59375 L3.28125,5.90625 Z M0,24.9375 L0,1.3125 C0,0.57421875 0.57421875,0 1.3125,0 L14.1881255,0 C14.4342193,0 14.680313,0.08203125 14.8443755,0.24609375 L20.7539062,6.15234375 C20.9179688,6.31640625 21,6.5625 21,6.80859375 L21,24.9375 C21,25.6757812 20.4257812,26.25 19.6875,26.25 L1.3125,26.25 C0.57421875,26.25 0,25.6757812 0,24.9375 Z M19.6875,24.5273438 L19.6875,7.7568748 C19.6875,7.51078105 19.5234375,7.34999987 19.2773438,7.34999987 L14.1914062,7.34999987 C13.5351562,7.34999987 13.125,6.80859375 13.125,6.15234375 L13.125,1.72265625 C13.125,1.4765625 12.9609375,1.3125 12.7148438,1.3125 L1.72265625,1.3125 C1.4765625,1.3125 1.3125,1.4765625 1.3125,1.72265625 L1.3125,24.5273438 C1.3125,24.7734375 1.4765625,24.9375 1.72265625,24.9375 L19.2773438,24.9375 C19.4414062,24.9375 19.6875,24.7734375 19.6875,24.5273438 Z M19.03125,6.16874975 L14.4375,1.57500007 L14.4375,5.6831249 C14.4375,5.92921865 14.5982818,6.16874975 14.8443755,6.16874975 L19.03125,6.16874975 Z" id="path-1"></path>
            </g>
        </g>
    </g>
</svg>