<?xml version="1.0" encoding="UTF-8"?>
<svg width="14px" height="22px" viewBox="0 0 14 22" version="1.1" xmlns="http://www.w3.org/2000/svg" xmlns:xlink="http://www.w3.org/1999/xlink">
    <!-- Generator: Sketch 51.1 (57501) - http://www.bohemiancoding.com/sketch -->
    <title>Compartir Copy 2</title>
    <desc>Created with Sketch.</desc>
    <defs>
        <path d="M11.9995894,1 C8.13552611,1.00414441 5.00409774,4.19726031 5.00003339,8.13744362 C4.99516236,9.73581949 5.523302,11.2884045 6.49777287,12.540385 C6.68539997,12.7835075 6.88777505,13.0224527 7.08359548,13.2538787 C7.66822068,13.8412546 8.12227032,14.5498494 8.41501049,15.3316994 C8.45246123,15.5610213 8.46455379,15.7939048 8.45106112,16.0259772 L8.45106112,16.1020053 C8.38440901,16.621192 8.53285218,17.1452261 8.86072727,17.5482086 C9.19614576,17.8655476 9.64562671,18.026797 10.1020157,17.9935155 L13.887331,17.9935155 C14.3615736,18.0354809 14.8312943,17.8723873 15.1818761,17.5440312 C15.4698031,17.1841551 15.5932301,16.7159862 15.5210797,16.2574032 C15.5210797,16.1955782 15.514525,16.1329178 15.514525,16.0710928 C15.5010796,15.8440797 15.5126223,15.6162452 15.548937,15.3918534 C15.8749526,14.5739872 16.3557672,13.8296149 16.9639239,13.2012439 C17.154009,12.9731598 17.3334428,12.7584434 17.5014059,12.5420559 C18.476522,11.2897381 19.0049749,9.7364923 18.9999647,8.13744362 C18.9958996,4.1969345 15.8639726,1.00368399 11.9995894,1 Z M16.3920299,11.651442 C16.2412728,11.8469426 16.0700323,12.0516334 15.8881406,12.2688563 C15.1377405,13.0486085 14.5585024,13.9821411 14.1888453,15.007536 C14.1117083,15.3618825 14.0841239,15.7255753 14.1069121,16.0878022 C14.1069121,16.1713495 14.1118281,16.248213 14.1151054,16.3284184 C14.1151054,16.3910788 14.1224794,16.4746261 14.1216601,16.539793 C14.0446339,16.5513848 13.9668237,16.5566929 13.8889697,16.555667 L10.1003771,16.555667 C10.0243671,16.5579055 9.94838485,16.550326 9.87424135,16.5331092 C9.85891963,16.3966848 9.85426206,16.259234 9.8603127,16.1220566 L9.8603127,16.0385093 C9.88211255,15.6743518 9.85454157,15.3088684 9.77837947,14.9523948 C9.43622894,13.9607202 8.88145213,13.0593588 8.15446282,12.3139719 C7.96028106,12.0842168 7.77675062,11.8669939 7.60796816,11.6455937 C6.83121581,10.6477696 6.40974115,9.41057599 6.41256231,8.13660815 C6.41256231,4.98903944 8.9148766,2.43743085 12.0016377,2.43743085 C15.0883988,2.43743085 17.5907131,4.98903944 17.5907131,8.13660815 C17.5939041,9.4129813 17.1711867,10.6524927 16.3920299,11.651442 Z M13.6833905,19 L10.3174016,19 C9.59018272,19.0009585 9.00087301,19.6479733 9,20.4464014 L9,21.5535986 C9.00087301,22.3520267 9.59018272,22.9990415 10.3174016,23 L13.6833905,23 C14.4103001,22.9985626 14.999128,22.3516877 15,21.5535986 L15,20.4446619 C14.9982563,19.6472521 14.4096829,19.0014345 13.6833905,19 Z M13.6382361,21.5066319 L10.3625561,21.5066319 L10.3625561,20.4968471 L13.6382361,20.4968471 L13.6382361,21.5066319 Z" id="path-1"></path>
    </defs>
    <g id="**Mobile-FINAL" stroke="none" stroke-width="1" fill="none" fill-rule="evenodd">
        <g id="MM_005" transform="translate(-21.000000, -644.000000)">
            <g id="ico-/-bulb" transform="translate(16.000000, 643.000000)">
                <g id="bulb" stroke-width="1" fill-rule="evenodd" transform="translate(9.000000, 20.000000)"></g>
                <mask id="mask-2" fill="white">
                    <use xlink:href="#path-1"></use>
                </mask>
                <use id="Mask" fill="#417505" fill-rule="nonzero" xlink:href="#path-1"></use>
                <g id="fill-/-dark-green" mask="url(#mask-2)" fill="#18542C" fill-rule="evenodd">
                    <rect id="Rectangle" x="0" y="0" width="24" height="24"></rect>
                </g>
            </g>
        </g>
    </g>
</svg>