<?xml version="1.0" encoding="utf-8"?>
<!-- Generator: Adobe Illustrator 21.0.0, SVG Export Plug-In . SVG Version: 6.00 Build 0)  -->
<svg version="1.1" id="Layer_1" xmlns="http://www.w3.org/2000/svg" xmlns:xlink="http://www.w3.org/1999/xlink" x="0px" y="0px"
	 viewBox="0 0 12 12" style="enable-background:new 0 0 12 12;" xml:space="preserve">
<style type="text/css">
	.st0{fill:#FFFFFF;}
</style>
<title>App-Close</title>
<desc>Created with Sketch.</desc>
<g id="_Bupa-Sales-II">
	<g id="inicio---menu3" transform="translate(-105.000000, -298.000000)">
		
			<g id="App-Close" transform="translate(111.000000, 304.000000) rotate(45.000000) translate(-111.000000, -304.000000) translate(107.000000, 300.000000)">
			<path id="path-1" class="st0" d="M4.9,4l2.9,2.9c0.2,0.2,0.2,0.6,0,0.9s-0.6,0.2-0.9,0L4,4.9L1.1,7.8c-0.2,0.2-0.6,0.2-0.9,0
				s-0.2-0.6,0-0.9L3.1,4L0.2,1.1c-0.2-0.2-0.2-0.6,0-0.9s0.6-0.2,0.9,0L4,3.1l2.9-2.9c0.2-0.2,0.6-0.2,0.9,0s0.2,0.6,0,0.9L4.9,4z"
				/>
		</g>
	</g>
</g>
</svg>
