<?xml version="1.0" encoding="UTF-8"?>
<svg width="28px" height="32px" viewBox="0 0 28 32" version="1.1" xmlns="http://www.w3.org/2000/svg" xmlns:xlink="http://www.w3.org/1999/xlink">
    <!-- Generator: Sketch 49.1 (51147) - http://www.bohemiancoding.com/sketch -->
    <title>Fill 263</title>
    <desc>Created with Sketch.</desc>
    <defs></defs>
    <g id="**desktop-FINAL" stroke="none" stroke-width="1" fill="none" fill-rule="evenodd">
        <g id="0012_AG" transform="translate(-454.000000, -395.000000)" fill="#229EE0">
            <path d="M479.3545,403.265 C479.3545,407 476.5665,409.8 472.8495,409.8 C469.1325,409.8 466.3445,407 466.3445,403.265 C466.3445,399.5355 469.1325,396.735 472.8495,396.735 C476.5665,396.735 479.3545,399.5355 479.3545,403.265 Z M481.077,403.265 C481.077,407.8 477.095,411.536 472.8495,411.536 C468.2035,411.536 464.6155,407.536 464.6155,403.265 C464.6155,399 468.2035,395 472.8495,395 C477.3605,395 481.077,399 481.077,403.265 Z M459.274,409 L464.2095,409 C463.865,408.477 463.5695,407.917 463.323,407.333 L460.9355,407.333 L460.9355,404.8645 L462.6155,404.8645 C462.5355,404.3475 462.4925,403.8125 462.4925,403.265 L462.4925,403.197 L459.274,403.197 L459.274,409 Z M459.274,413.031 L469.2805,413.037 C468.216,412.643 467.225,412.077 466.3575,411.3695 L459.274,411.3695 L459.274,413.031 Z M459.274,417.1665 L471.4525,417.1665 L471.4525,415.499 L459.274,415.499 L459.274,417.1665 Z M459.274,421.3015 L467.2065,421.3015 L467.2065,419.6335 L459.274,419.6335 L459.274,421.3015 Z M454,398.2 L454,403.265 L454,427 L477.791,427 L477.791,412.403 C477.115,412.7785 476.3945,413.0745 475.637,413.2835 L475.637,424.744 L456.2215,424.744 L456.2215,400.434 L462.8805,400.434 C463.1015,399.646 463.4155,398.9015 463.803,398.2 L454,398.2 Z M472.0985,404.5505 L469.44,401.9355 L468.3325,403 L472.0065,406.686 L472.0985,406.735 L477.8895,400.914 L476.831,399.7995 L472.0985,404.5505 Z" id="Fill-263"></path>
        </g>
    </g>
</svg>